<?xml version="1.0" encoding="UTF-8"?>
<svg width="853px" height="200px" viewBox="0 0 853 200" version="1.1" xmlns="http://www.w3.org/2000/svg" xmlns:xlink="http://www.w3.org/1999/xlink">
    <title>multi-page item - add another</title>
    <defs>
        <rect id="path-1" x="0" y="0" width="26" height="10"></rect>
        <filter x="-1.9%" y="-5.0%" width="103.8%" height="110.0%" filterUnits="objectBoundingBox" id="filter-2">
            <feOffset dx="0" dy="-1" in="SourceAlpha" result="shadowOffsetInner1"></feOffset>
            <feComposite in="shadowOffsetInner1" in2="SourceAlpha" operator="arithmetic" k2="-1" k3="1" result="shadowInnerInner1"></feComposite>
            <feColorMatrix values="0 0 0 0 0.566726888   0 0 0 0 0.574046853   0 0 0 0 0.581489895  0 0 0 1 0" type="matrix" in="shadowInnerInner1"></feColorMatrix>
        </filter>
        <rect id="path-3" x="32" y="0" width="26" height="10"></rect>
        <filter x="-1.9%" y="-5.0%" width="103.8%" height="110.0%" filterUnits="objectBoundingBox" id="filter-4">
            <feOffset dx="0" dy="-1" in="SourceAlpha" result="shadowOffsetInner1"></feOffset>
            <feComposite in="shadowOffsetInner1" in2="SourceAlpha" operator="arithmetic" k2="-1" k3="1" result="shadowInnerInner1"></feComposite>
            <feColorMatrix values="0 0 0 0 0   0 0 0 0 0.392156863   0 0 0 0 0.207843137  0 0 0 1 0" type="matrix" in="shadowInnerInner1"></feColorMatrix>
        </filter>
        <rect id="path-5" x="0" y="0" width="26" height="10"></rect>
        <filter x="-1.9%" y="-5.0%" width="103.8%" height="110.0%" filterUnits="objectBoundingBox" id="filter-6">
            <feOffset dx="0" dy="-1" in="SourceAlpha" result="shadowOffsetInner1"></feOffset>
            <feComposite in="shadowOffsetInner1" in2="SourceAlpha" operator="arithmetic" k2="-1" k3="1" result="shadowInnerInner1"></feComposite>
            <feColorMatrix values="0 0 0 0 0   0 0 0 0 0.392156863   0 0 0 0 0.207843137  0 0 0 1 0" type="matrix" in="shadowInnerInner1"></feColorMatrix>
        </filter>
        <rect id="path-7" x="0" y="0" width="26" height="10"></rect>
        <filter x="-1.9%" y="-5.0%" width="103.8%" height="110.0%" filterUnits="objectBoundingBox" id="filter-8">
            <feOffset dx="0" dy="-1" in="SourceAlpha" result="shadowOffsetInner1"></feOffset>
            <feComposite in="shadowOffsetInner1" in2="SourceAlpha" operator="arithmetic" k2="-1" k3="1" result="shadowInnerInner1"></feComposite>
            <feColorMatrix values="0 0 0 0 0   0 0 0 0 0.392156863   0 0 0 0 0.207843137  0 0 0 1 0" type="matrix" in="shadowInnerInner1"></feColorMatrix>
        </filter>
        <rect id="path-9" x="0" y="0" width="26" height="10"></rect>
        <filter x="-1.9%" y="-5.0%" width="103.8%" height="110.0%" filterUnits="objectBoundingBox" id="filter-10">
            <feOffset dx="0" dy="-1" in="SourceAlpha" result="shadowOffsetInner1"></feOffset>
            <feComposite in="shadowOffsetInner1" in2="SourceAlpha" operator="arithmetic" k2="-1" k3="1" result="shadowInnerInner1"></feComposite>
            <feColorMatrix values="0 0 0 0 0   0 0 0 0 0.392156863   0 0 0 0 0.207843137  0 0 0 1 0" type="matrix" in="shadowInnerInner1"></feColorMatrix>
        </filter>
        <rect id="path-11" x="0" y="0" width="26" height="10"></rect>
        <filter x="-1.9%" y="-5.0%" width="103.8%" height="110.0%" filterUnits="objectBoundingBox" id="filter-12">
            <feOffset dx="0" dy="-1" in="SourceAlpha" result="shadowOffsetInner1"></feOffset>
            <feComposite in="shadowOffsetInner1" in2="SourceAlpha" operator="arithmetic" k2="-1" k3="1" result="shadowInnerInner1"></feComposite>
            <feColorMatrix values="0 0 0 0 0   0 0 0 0 0.392156863   0 0 0 0 0.207843137  0 0 0 1 0" type="matrix" in="shadowInnerInner1"></feColorMatrix>
        </filter>
    </defs>
    <g id="multi-page-item---add-another" stroke="none" stroke-width="1" fill="none" fill-rule="evenodd">
        <rect fill="#FFFFFF" x="0" y="0" width="853" height="200"></rect>
        <g id="Arrow-(Forward)-2-Copy-4" transform="translate(434.000000, 78.000000)" fill="#0B0C0C" fill-rule="nonzero">
            <g id="Arrow-(Forward)-2-Copy">
                <path id="Arrow-(Forward)" d="M24.6128931,-6.5 C24.7425407,-6.5 24.8704078,-6.46981468 24.9863681,-6.41183453 L24.9863681,-6.41183453 L37.3159544,-0.247041351 C37.7284835,-0.0407768365 37.8956939,0.460854444 37.6894294,0.873383472 C37.6086205,1.03500118 37.4775721,1.16604956 37.3159544,1.24685841 L37.3159544,1.24685841 L24.9863681,7.41165159 C24.573839,7.6179161 24.0722078,7.45070568 23.8659433,7.03817665 C23.8079631,6.92221634 23.7777778,6.79434927 23.7777778,6.66470171 L23.7777778,6.66470171 L23.777,1.5 L0,1.5 C-0.55228475,1.5 -1,1.05228475 -1,0.5 C-1,-0.0128358391 -0.61395981,-0.435507161 -0.116621125,-0.493272269 L0,-0.5 L23.777,-0.5 L23.7777778,-5.66488464 C23.7777778,-6.09062754 24.0963619,-6.44196113 24.508138,-6.49349327 Z"></path>
            </g>
        </g>
        <g id="Arrow-(Forward)-2-Copy-8" transform="translate(581.000000, 78.000000)" fill="#0B0C0C" fill-rule="nonzero">
            <g id="Arrow-(Forward)-2-Copy">
                <path id="Arrow-(Forward)" d="M24.6128931,-6.5 C24.7425407,-6.5 24.8704078,-6.46981468 24.9863681,-6.41183453 L24.9863681,-6.41183453 L37.3159544,-0.247041351 C37.7284835,-0.0407768365 37.8956939,0.460854444 37.6894294,0.873383472 C37.6086205,1.03500118 37.4775721,1.16604956 37.3159544,1.24685841 L37.3159544,1.24685841 L24.9863681,7.41165159 C24.573839,7.6179161 24.0722078,7.45070568 23.8659433,7.03817665 C23.8079631,6.92221634 23.7777778,6.79434927 23.7777778,6.66470171 L23.7777778,6.66470171 L23.777,1.5 L0,1.5 C-0.55228475,1.5 -1,1.05228475 -1,0.5 C-1,-0.0128358391 -0.61395981,-0.435507161 -0.116621125,-0.493272269 L0,-0.5 L23.777,-0.5 L23.7777778,-5.66488464 C23.7777778,-6.09062754 24.0963619,-6.44196113 24.508138,-6.49349327 Z"></path>
            </g>
        </g>
        <g id="Arrow-(Forward)-2-Copy-7" transform="translate(140.000000, 78.000000)" fill="#0B0C0C" fill-rule="nonzero">
            <g id="Arrow-(Forward)-2-Copy">
                <path id="Arrow-(Forward)" d="M24.6128931,-6.5 C24.7425407,-6.5 24.8704078,-6.46981468 24.9863681,-6.41183453 L24.9863681,-6.41183453 L37.3159544,-0.247041351 C37.7284835,-0.0407768365 37.8956939,0.460854444 37.6894294,0.873383472 C37.6086205,1.03500118 37.4775721,1.16604956 37.3159544,1.24685841 L37.3159544,1.24685841 L24.9863681,7.41165159 C24.573839,7.6179161 24.0722078,7.45070568 23.8659433,7.03817665 C23.8079631,6.92221634 23.7777778,6.79434927 23.7777778,6.66470171 L23.7777778,6.66470171 L23.777,1.5 L0,1.5 C-0.55228475,1.5 -1,1.05228475 -1,0.5 C-1,-0.0128358391 -0.61395981,-0.435507161 -0.116621125,-0.493272269 L0,-0.5 L23.777,-0.5 L23.7777778,-5.66488464 C23.7777778,-6.09062754 24.0963619,-6.44196113 24.508138,-6.49349327 Z"></path>
            </g>
        </g>
        <g id="Arrow-(Forward)-2-Copy-6" transform="translate(287.000000, 78.000000)" fill="#0B0C0C" fill-rule="nonzero">
            <g id="Arrow-(Forward)-2-Copy">
                <path id="Arrow-(Forward)" d="M24.6128931,-6.5 C24.7425407,-6.5 24.8704078,-6.46981468 24.9863681,-6.41183453 L24.9863681,-6.41183453 L37.3159544,-0.247041351 C37.7284835,-0.0407768365 37.8956939,0.460854444 37.6894294,0.873383472 C37.6086205,1.03500118 37.4775721,1.16604956 37.3159544,1.24685841 L37.3159544,1.24685841 L24.9863681,7.41165159 C24.573839,7.6179161 24.0722078,7.45070568 23.8659433,7.03817665 C23.8079631,6.92221634 23.7777778,6.79434927 23.7777778,6.66470171 L23.7777778,6.66470171 L23.777,1.5 L0,1.5 C-0.55228475,1.5 -1,1.05228475 -1,0.5 C-1,-0.0128358391 -0.61395981,-0.435507161 -0.116621125,-0.493272269 L0,-0.5 L23.777,-0.5 L23.7777778,-5.66488464 C23.7777778,-6.09062754 24.0963619,-6.44196113 24.508138,-6.49349327 Z"></path>
            </g>
        </g>
        <g id="Arrow-(Forward)-2-Copy-5" transform="translate(728.000000, 77.000000)" fill="#0B0C0C" fill-rule="nonzero">
            <g id="Arrow-(Forward)-2-Copy">
                <path id="Arrow-(Forward)" d="M81.5758349,-5.93401304 C81.7054806,-5.93470265 81.8335064,-5.90519789 81.9497735,-5.84783536 L81.9497735,-5.84783536 L94.3119764,0.251288632 C94.7255967,0.455355956 94.895473,0.956090736 94.6914057,1.36971106 C94.6114576,1.53175631 94.4811081,1.6634999 94.3199226,1.74516726 L94.3199226,1.74516726 L82.0233016,7.97545521 C81.6118756,8.18391108 81.109362,8.01937123 80.9009061,7.60794517 C80.84231,7.49229491 80.8114449,7.3645902 80.8107553,7.23494447 L80.8107553,7.23494447 L80.783,2.07 L80.0041874,2.07445996 C79.4519104,2.0773976 79.0018201,1.63207012 78.9988824,1.07979318 C78.9961546,0.566964594 79.3799411,0.142245876 79.8769655,0.0818362037 L79.9935492,0.0744882512 L80.772,0.07 L80.7451733,-5.09446746 C80.7429088,-5.52020434 81.0596196,-5.87322753 81.4711158,-5.9269492 Z M0.99466678,0.494695073 C1.54694372,0.491757429 1.99703406,0.937084916 1.99997171,1.48936185 C2.00269952,2.00219044 1.61891301,2.42690916 1.12188862,2.48731883 L1.00530493,2.49466678 L0.00531907369,2.49998585 C-0.546957863,2.5029235 -0.99704821,2.05759601 -0.999985854,1.50531907 C-1.00271367,0.992490489 -0.618927156,0.567771771 -0.121902764,0.507362099 L-0.00531907369,0.500014146 L0.99466678,0.494695073 Z M5.99459605,0.468099704 C6.54687299,0.465162061 6.99696333,0.910489547 6.99990098,1.46276648 C7.00262879,1.97559507 6.61884228,2.40031379 6.12181789,2.46072346 L6.0052342,2.46807141 L5.00524834,2.47339049 C4.4529714,2.47632813 4.00288106,2.03100064 3.99994341,1.47872371 C3.9972156,0.965895121 4.38100211,0.541176402 4.8780265,0.48076673 L4.99461019,0.473418778 L5.99459605,0.468099704 Z M10.9945253,0.441504336 C11.5468023,0.438566693 11.9968926,0.883894179 11.9998302,1.43617112 C12.0025581,1.9489997 11.6187715,2.37371842 11.1217472,2.43412809 L11.0051635,2.44147604 L10.0051776,2.44679512 C9.45290067,2.44973276 9.00281033,2.00440527 8.99987268,1.45212834 C8.99714487,0.939299752 9.38093138,0.514581034 9.87795577,0.454171362 L9.99453946,0.446823409 L10.9945253,0.441504336 Z M15.9944546,0.414908967 C16.5467315,0.411971324 16.9968219,0.85729881 16.9997595,1.40957575 C17.0024873,1.92240433 16.6187008,2.34712305 16.1216764,2.40753272 L16.0050927,2.41488067 L15.0051069,2.42019975 C14.4528299,2.42313739 14.0027396,1.97780991 13.999802,1.42553297 C13.9970741,0.912704384 14.3808606,0.487985665 14.877885,0.427575994 L14.9944687,0.420228041 L15.9944546,0.414908967 Z M20.9943839,0.388313599 C21.5466608,0.385375956 21.9967511,0.830703442 21.9996888,1.38298038 C22.0024166,1.89580896 21.6186301,2.32052768 21.1216057,2.38093735 L21.005022,2.38828531 L20.0050361,2.39360438 C19.4527592,2.39654202 19.0026689,1.95121454 18.9997312,1.3989376 C18.9970034,0.886109016 19.3807899,0.461390297 19.8778143,0.400980625 L19.994398,0.393632673 L20.9943839,0.388313599 Z M25.9943131,0.36171823 C26.5465901,0.358780587 26.9966804,0.804108073 26.999618,1.35638501 C27.0023459,1.86921359 26.6185594,2.29393231 26.121535,2.35434199 L26.0049513,2.36168994 L25.0049654,2.36700901 C24.4526885,2.36994665 24.0025981,1.92461917 23.9996605,1.37234223 C23.9969327,0.859513647 24.3807192,0.434794929 24.8777436,0.374385257 L24.9943273,0.367037304 L25.9943131,0.36171823 Z M30.9942424,0.335122862 C31.5465193,0.332185219 31.9966097,0.777512705 31.9995473,1.32978964 C32.0022751,1.84261823 31.6184886,2.26733694 31.1214642,2.32774662 L31.0048805,2.33509457 L30.0048947,2.34041364 C29.4526177,2.34335129 29.0025274,1.8980238 28.9995898,1.34574686 C28.9968619,0.832918279 29.3806485,0.40819956 29.8776728,0.347789888 L29.9942565,0.340441936 L30.9942424,0.335122862 Z M35.9941717,0.308527494 C36.5464486,0.30558985 36.9965389,0.750917336 36.9994766,1.30319427 C37.0022044,1.81602286 36.6184179,2.24074158 36.1213935,2.30115125 L36.0048098,2.3084992 L35.004824,2.31381827 C34.452547,2.31675592 34.0024567,1.87142843 33.999519,1.31915149 C33.9967912,0.80632291 34.3805777,0.381604192 34.8776021,0.32119452 L34.9941858,0.313846567 L35.9941717,0.308527494 Z M40.9941009,0.281932125 C41.5463779,0.278994482 41.9964682,0.724321968 41.9994059,1.27659891 C42.0021337,1.78942749 41.6183472,2.21414621 41.1213228,2.27455588 L41.0047391,2.28190383 L40.0047532,2.28722291 C39.4524763,2.29016055 39.0023859,1.84483306 38.9994483,1.29255613 C38.9967205,0.779727542 39.380507,0.355008823 39.8775314,0.294599151 L39.9941151,0.287251199 L40.9941009,0.281932125 Z M45.9940302,0.255336757 C46.5463071,0.252399113 46.9963975,0.6977266 46.9993351,1.25000354 C47.0020629,1.76283212 46.6182764,2.18755084 46.121252,2.24796051 L46.0046683,2.25530846 L45.0046825,2.26062754 C44.4524055,2.26356518 44.0023152,1.81823769 43.9993776,1.26596076 C43.9966497,0.753132173 44.3804363,0.328413455 44.8774606,0.268003783 L44.9940443,0.26065583 L45.9940302,0.255336757 Z M50.9939595,0.228741388 C51.5462364,0.225803745 51.9963267,0.671131231 51.9992644,1.22340817 C52.0019922,1.73623675 51.6182057,2.16095547 51.1211813,2.22136514 L51.0045976,2.2287131 L50.0046118,2.23403217 C49.4523348,2.23696981 49.0022445,1.79164233 48.9993068,1.23936539 C48.996579,0.726536805 49.3803655,0.301818086 49.8773899,0.241408414 L49.9939736,0.234060462 L50.9939595,0.228741388 Z M55.9938887,0.20214602 C56.5461657,0.199208376 56.996256,0.644535863 56.9991937,1.1968128 C57.0019215,1.70964138 56.618135,2.1343601 56.1211106,2.19476977 L56.0045269,2.20211773 L55.004541,2.2074368 C54.4522641,2.21037444 54.0021737,1.76504696 53.9992361,1.21277002 C53.9965083,0.699941436 54.3802948,0.275222718 54.8773192,0.214813046 L54.9939029,0.207465093 L55.9938887,0.20214602 Z M60.993818,0.175550651 C61.5460949,0.172613008 61.9961853,0.617940494 61.9991229,1.17021743 C62.0018507,1.68304602 61.6180642,2.10776473 61.1210398,2.16817441 L61.0044561,2.17552236 L60.0044703,2.18084143 C59.4521934,2.18377908 59.002103,1.73845159 58.9991654,1.18617465 C58.9964376,0.673346068 59.3802241,0.248627349 59.8772485,0.188217678 L59.9938321,0.180869725 L60.993818,0.175550651 Z M65.9937473,0.148955283 C66.5460242,0.14601764 66.9961145,0.591345126 66.9990522,1.14362206 C67.00178,1.65645065 66.6179935,2.08116937 66.1209691,2.14157904 L66.0043854,2.14892699 L65.0043996,2.15424606 C64.4521226,2.15718371 64.0020323,1.71185622 63.9990946,1.15957928 C63.9963668,0.6467507 64.3801533,0.222031981 64.8771777,0.161622309 L64.9937614,0.154274357 L65.9937473,0.148955283 Z M70.9936765,0.122359914 C71.5459535,0.119422271 71.9960438,0.564749757 71.9989815,1.11702669 C72.0017093,1.62985528 71.6179228,2.054574 71.1208984,2.11498367 L71.0043147,2.12233162 L70.0043288,2.1276507 C69.4520519,2.13058834 69.0019615,1.68526085 68.9990239,1.13298392 C68.9962961,0.620155331 69.3800826,0.195436613 69.877107,0.135026941 L69.9936907,0.127678988 L70.9936765,0.122359914 Z M75.9936058,0.095764546 C76.5458827,0.0928269027 76.9959731,0.538154389 76.9989107,1.09043133 C77.0016385,1.60325991 76.617852,2.02797863 76.1208276,2.0883883 L76.0042439,2.09573625 L75.0042581,2.10105533 C74.4519812,2.10399297 74.0018908,1.65866548 73.9989532,1.10638855 C73.9962254,0.593559963 74.3800119,0.168841244 74.8770363,0.108431572 L74.9936199,0.10108362 L75.9936058,0.095764546 Z"></path>
            </g>
        </g>
        <g id="Wide-Check-answers-Copy-2" transform="translate(618.000000, 30.000000)">
            <g id="Page-boundaries">
                <rect id="Rectangle" stroke="#0B0C0C" stroke-width="2" fill="#FFFFFF" x="1" y="1" width="108" height="94"></rect>
                <rect id="Rectangle" fill="#0B0C0C" x="0" y="0" width="110" height="10"></rect>
            </g>
            <g id="Button" transform="translate(7.000000, 64.000000)">
                <g id="Click-Area">
                    <use fill="#BFC1C3" fill-rule="evenodd" xlink:href="#path-1"></use>
                    <use fill="black" fill-opacity="1" filter="url(#filter-2)" xlink:href="#path-1"></use>
                </g>
                <g id="Click-Area-Copy">
                    <use fill="#00823B" fill-rule="evenodd" xlink:href="#path-3"></use>
                    <use fill="black" fill-opacity="1" filter="url(#filter-4)" xlink:href="#path-3"></use>
                </g>
            </g>
            <g id="Summary-List" transform="translate(7.000000, 34.000000)">
                <g id="Dividers" transform="translate(0.000000, 4.000000)" fill="#BFC1C3">
                    <rect id="Line-Copy-2" x="0" y="8" width="72" height="1"></rect>
                    <rect id="Line-Copy-3" x="0" y="16" width="72" height="1"></rect>
                    <rect id="Line-Copy" x="0" y="0" width="72" height="1"></rect>
                </g>
                <g id="Change-link" transform="translate(62.000000, 0.000000)" fill="#005EA5">
                    <rect id="Line-Copy-9" x="0" y="0" width="10" height="1"></rect>
                    <rect id="Line-Copy-11" x="0" y="16" width="10" height="1"></rect>
                    <rect id="Line-Copy-10" x="0" y="8" width="10" height="1"></rect>
                </g>
                <g id="Change-link-Copy" transform="translate(47.000000, 0.000000)" fill="#005EA5">
                    <rect id="Line-Copy-9" x="0" y="0" width="10" height="1"></rect>
                    <rect id="Line-Copy-11" x="0" y="16" width="10" height="1"></rect>
                    <rect id="Line-Copy-10" x="0" y="8" width="10" height="1"></rect>
                </g>
                <g id="Answers" fill="#0B0C0C">
                    <rect id="Line-Copy-4" x="0" y="0" width="31" height="1"></rect>
                    <rect id="Line-Copy-5" x="0" y="16" width="31" height="1"></rect>
                    <rect id="Line-Copy-6" x="0" y="8" width="31" height="1"></rect>
                </g>
            </g>
            <g id="Heading" transform="translate(7.000000, 15.000000)" fill="#231F20" font-family="Arial-BoldMT, Arial" font-size="10" font-weight="bold" letter-spacing="-0.100000001" line-spacing="11">
                <text id="Summary-list">
                    <tspan x="0" y="9">Summary list</tspan>
                </text>
            </g>
        </g>
        <g id="Action/State-button" transform="translate(737.000000, 69.000000)">
            <rect id="Rectangle-368" stroke="#0B0C0C" stroke-width="2" fill="#FFFFFF" x="1" y="1" width="60" height="18" rx="9"></rect>
            <text id="Action-/-State-chang" font-family="ArialMT, Arial" font-size="8" font-weight="normal" fill="#0B0C0C">
                <tspan x="14.6007812" y="13">Continue</tspan>
            </text>
        </g>
        <g id="Wide-Check-answers-Copy" transform="translate(471.000000, 30.000000)">
            <g id="Page-boundaries">
                <rect id="Rectangle" stroke="#0B0C0C" stroke-width="2" fill="#FFFFFF" x="1" y="1" width="108" height="94"></rect>
                <rect id="Rectangle" fill="#0B0C0C" x="0" y="0" width="110" height="10"></rect>
            </g>
            <g id="Click-Area" transform="translate(7.000000, 64.000000)">
                <use fill="#00823B" fill-rule="evenodd" xlink:href="#path-5"></use>
                <use fill="black" fill-opacity="1" filter="url(#filter-6)" xlink:href="#path-5"></use>
            </g>
            <g id="Summary-List" transform="translate(7.000000, 34.000000)">
                <g id="Dividers" transform="translate(0.000000, 4.000000)" fill="#BFC1C3">
                    <rect id="Line-Copy-2" x="0" y="8" width="72" height="1"></rect>
                    <rect id="Line-Copy-7" x="0" y="16" width="72" height="1"></rect>
                    <rect id="Line-Copy" x="0" y="0" width="72" height="1"></rect>
                </g>
                <g id="Change-link" transform="translate(62.000000, 0.000000)" fill="#005EA5">
                    <rect id="Line-Copy-9" x="0" y="0" width="10" height="1"></rect>
                    <rect id="Line-Copy-11" x="0" y="16" width="10" height="1"></rect>
                    <rect id="Line-Copy-10" x="0" y="8" width="10" height="1"></rect>
                </g>
                <g id="Answers" fill="#0B0C0C">
                    <rect id="Line-Copy-4" x="0" y="0" width="12" height="1"></rect>
                    <rect id="Line-Copy-13" x="19" y="0" width="33" height="1"></rect>
                    <rect id="Line-Copy-5" x="0" y="16" width="12" height="1"></rect>
                    <rect id="Line-Copy-14" x="19" y="16" width="33" height="1"></rect>
                    <rect id="Line-Copy-6" x="0" y="8" width="12" height="1"></rect>
                    <rect id="Line-Copy-15" x="19" y="8" width="33" height="1"></rect>
                </g>
            </g>
            <g id="Heading" transform="translate(7.000000, 15.000000)" fill="#231F20" font-family="Arial-BoldMT, Arial" font-size="10" font-weight="bold" letter-spacing="-0.100000001" line-spacing="11">
                <text id="Check-answers">
                    <tspan x="0" y="9">Check answer</tspan>
                    <tspan x="66.0558594" y="9">s</tspan>
                </text>
            </g>
        </g>
        <path id="Line-2-Copy-2" d="M389,162 C389.552285,162 390,162.447715 390,163 C390,163.512836 389.61396,163.935507 389.116621,163.993272 L389,164 L388,164 C387.447715,164 387,163.552285 387,163 C387,162.487164 387.38604,162.064493 387.883379,162.006728 L388,162 L389,162 Z M384,162 C384.552285,162 385,162.447715 385,163 C385,163.512836 384.61396,163.935507 384.116621,163.993272 L384,164 L383,164 C382.447715,164 382,163.552285 382,163 C382,162.487164 382.38604,162.064493 382.883379,162.006728 L383,162 L384,162 Z M89,162 C89.5522847,162 90,162.447715 90,163 C90,163.512836 89.6139598,163.935507 89.1166211,163.993272 L89,164 L88,164 C87.4477153,164 87,163.552285 87,163 C87,162.487164 87.3860402,162.064493 87.8833789,162.006728 L88,162 L89,162 Z M94,162 C94.5522847,162 95,162.447715 95,163 C95,163.512836 94.6139598,163.935507 94.1166211,163.993272 L94,164 L93,164 C92.4477153,164 92,163.552285 92,163 C92,162.487164 92.3860402,162.064493 92.8833789,162.006728 L93,162 L94,162 Z M99,162 C99.5522847,162 100,162.447715 100,163 C100,163.512836 99.6139598,163.935507 99.1166211,163.993272 L99,164 L98,164 C97.4477153,164 97,163.552285 97,163 C97,162.487164 97.3860402,162.064493 97.8833789,162.006728 L98,162 L99,162 Z M104,162 C104.552285,162 105,162.447715 105,163 C105,163.512836 104.61396,163.935507 104.116621,163.993272 L104,164 L103,164 C102.447715,164 102,163.552285 102,163 C102,162.487164 102.38604,162.064493 102.883379,162.006728 L103,162 L104,162 Z M109,162 C109.552285,162 110,162.447715 110,163 C110,163.512836 109.61396,163.935507 109.116621,163.993272 L109,164 L108,164 C107.447715,164 107,163.552285 107,163 C107,162.487164 107.38604,162.064493 107.883379,162.006728 L108,162 L109,162 Z M114,162 C114.552285,162 115,162.447715 115,163 C115,163.512836 114.61396,163.935507 114.116621,163.993272 L114,164 L113,164 C112.447715,164 112,163.552285 112,163 C112,162.487164 112.38604,162.064493 112.883379,162.006728 L113,162 L114,162 Z M119,162 C119.552285,162 120,162.447715 120,163 C120,163.512836 119.61396,163.935507 119.116621,163.993272 L119,164 L118,164 C117.447715,164 117,163.552285 117,163 C117,162.487164 117.38604,162.064493 117.883379,162.006728 L118,162 L119,162 Z M669,162 C669.552285,162 670,162.447715 670,163 C670,163.512836 669.61396,163.935507 669.116621,163.993272 L669,164 L668,164 C667.447715,164 667,163.552285 667,163 C667,162.487164 667.38604,162.064493 667.883379,162.006728 L668,162 L669,162 Z M664,162 C664.552285,162 665,162.447715 665,163 C665,163.512836 664.61396,163.935507 664.116621,163.993272 L664,164 L663,164 C662.447715,164 662,163.552285 662,163 C662,162.487164 662.38604,162.064493 662.883379,162.006728 L663,162 L664,162 Z M659,162 C659.552285,162 660,162.447715 660,163 C660,163.512836 659.61396,163.935507 659.116621,163.993272 L659,164 L658,164 C657.447715,164 657,163.552285 657,163 C657,162.487164 657.38604,162.064493 657.883379,162.006728 L658,162 L659,162 Z M654,162 C654.552285,162 655,162.447715 655,163 C655,163.512836 654.61396,163.935507 654.116621,163.993272 L654,164 L653,164 C652.447715,164 652,163.552285 652,163 C652,162.487164 652.38604,162.064493 652.883379,162.006728 L653,162 L654,162 Z M649,162 C649.552285,162 650,162.447715 650,163 C650,163.512836 649.61396,163.935507 649.116621,163.993272 L649,164 L648,164 C647.447715,164 647,163.552285 647,163 C647,162.487164 647.38604,162.064493 647.883379,162.006728 L648,162 L649,162 Z M644,162 C644.552285,162 645,162.447715 645,163 C645,163.512836 644.61396,163.935507 644.116621,163.993272 L644,164 L643,164 C642.447715,164 642,163.552285 642,163 C642,162.487164 642.38604,162.064493 642.883379,162.006728 L643,162 L644,162 Z M639,162 C639.552285,162 640,162.447715 640,163 C640,163.512836 639.61396,163.935507 639.116621,163.993272 L639,164 L638,164 C637.447715,164 637,163.552285 637,163 C637,162.487164 637.38604,162.064493 637.883379,162.006728 L638,162 L639,162 Z M634,162 C634.552285,162 635,162.447715 635,163 C635,163.512836 634.61396,163.935507 634.116621,163.993272 L634,164 L633,164 C632.447715,164 632,163.552285 632,163 C632,162.487164 632.38604,162.064493 632.883379,162.006728 L633,162 L634,162 Z M629,162 C629.552285,162 630,162.447715 630,163 C630,163.512836 629.61396,163.935507 629.116621,163.993272 L629,164 L628,164 C627.447715,164 627,163.552285 627,163 C627,162.487164 627.38604,162.064493 627.883379,162.006728 L628,162 L629,162 Z M624,162 C624.552285,162 625,162.447715 625,163 C625,163.512836 624.61396,163.935507 624.116621,163.993272 L624,164 L623,164 C622.447715,164 622,163.552285 622,163 C622,162.487164 622.38604,162.064493 622.883379,162.006728 L623,162 L624,162 Z M619,162 C619.552285,162 620,162.447715 620,163 C620,163.512836 619.61396,163.935507 619.116621,163.993272 L619,164 L618,164 C617.447715,164 617,163.552285 617,163 C617,162.487164 617.38604,162.064493 617.883379,162.006728 L618,162 L619,162 Z M614,162 C614.552285,162 615,162.447715 615,163 C615,163.512836 614.61396,163.935507 614.116621,163.993272 L614,164 L613,164 C612.447715,164 612,163.552285 612,163 C612,162.487164 612.38604,162.064493 612.883379,162.006728 L613,162 L614,162 Z M609,162 C609.552285,162 610,162.447715 610,163 C610,163.512836 609.61396,163.935507 609.116621,163.993272 L609,164 L608,164 C607.447715,164 607,163.552285 607,163 C607,162.487164 607.38604,162.064493 607.883379,162.006728 L608,162 L609,162 Z M604,162 C604.552285,162 605,162.447715 605,163 C605,163.512836 604.61396,163.935507 604.116621,163.993272 L604,164 L603,164 C602.447715,164 602,163.552285 602,163 C602,162.487164 602.38604,162.064493 602.883379,162.006728 L603,162 L604,162 Z M599,162 C599.552285,162 600,162.447715 600,163 C600,163.512836 599.61396,163.935507 599.116621,163.993272 L599,164 L598,164 C597.447715,164 597,163.552285 597,163 C597,162.487164 597.38604,162.064493 597.883379,162.006728 L598,162 L599,162 Z M594,162 C594.552285,162 595,162.447715 595,163 C595,163.512836 594.61396,163.935507 594.116621,163.993272 L594,164 L593,164 C592.447715,164 592,163.552285 592,163 C592,162.487164 592.38604,162.064493 592.883379,162.006728 L593,162 L594,162 Z M589,162 C589.552285,162 590,162.447715 590,163 C590,163.512836 589.61396,163.935507 589.116621,163.993272 L589,164 L588,164 C587.447715,164 587,163.552285 587,163 C587,162.487164 587.38604,162.064493 587.883379,162.006728 L588,162 L589,162 Z M584,162 C584.552285,162 585,162.447715 585,163 C585,163.512836 584.61396,163.935507 584.116621,163.993272 L584,164 L583,164 C582.447715,164 582,163.552285 582,163 C582,162.487164 582.38604,162.064493 582.883379,162.006728 L583,162 L584,162 Z M579,162 C579.552285,162 580,162.447715 580,163 C580,163.512836 579.61396,163.935507 579.116621,163.993272 L579,164 L578,164 C577.447715,164 577,163.552285 577,163 C577,162.487164 577.38604,162.064493 577.883379,162.006728 L578,162 L579,162 Z M574,162 C574.552285,162 575,162.447715 575,163 C575,163.512836 574.61396,163.935507 574.116621,163.993272 L574,164 L573,164 C572.447715,164 572,163.552285 572,163 C572,162.487164 572.38604,162.064493 572.883379,162.006728 L573,162 L574,162 Z M569,162 C569.552285,162 570,162.447715 570,163 C570,163.512836 569.61396,163.935507 569.116621,163.993272 L569,164 L568,164 C567.447715,164 567,163.552285 567,163 C567,162.487164 567.38604,162.064493 567.883379,162.006728 L568,162 L569,162 Z M564,162 C564.552285,162 565,162.447715 565,163 C565,163.512836 564.61396,163.935507 564.116621,163.993272 L564,164 L563,164 C562.447715,164 562,163.552285 562,163 C562,162.487164 562.38604,162.064493 562.883379,162.006728 L563,162 L564,162 Z M559,162 C559.552285,162 560,162.447715 560,163 C560,163.512836 559.61396,163.935507 559.116621,163.993272 L559,164 L558,164 C557.447715,164 557,163.552285 557,163 C557,162.487164 557.38604,162.064493 557.883379,162.006728 L558,162 L559,162 Z M554,162 C554.552285,162 555,162.447715 555,163 C555,163.512836 554.61396,163.935507 554.116621,163.993272 L554,164 L553,164 C552.447715,164 552,163.552285 552,163 C552,162.487164 552.38604,162.064493 552.883379,162.006728 L553,162 L554,162 Z M549,162 C549.552285,162 550,162.447715 550,163 C550,163.512836 549.61396,163.935507 549.116621,163.993272 L549,164 L548,164 C547.447715,164 547,163.552285 547,163 C547,162.487164 547.38604,162.064493 547.883379,162.006728 L548,162 L549,162 Z M544,162 C544.552285,162 545,162.447715 545,163 C545,163.512836 544.61396,163.935507 544.116621,163.993272 L544,164 L543,164 C542.447715,164 542,163.552285 542,163 C542,162.487164 542.38604,162.064493 542.883379,162.006728 L543,162 L544,162 Z M539,162 C539.552285,162 540,162.447715 540,163 C540,163.512836 539.61396,163.935507 539.116621,163.993272 L539,164 L538,164 C537.447715,164 537,163.552285 537,163 C537,162.487164 537.38604,162.064493 537.883379,162.006728 L538,162 L539,162 Z M534,162 C534.552285,162 535,162.447715 535,163 C535,163.512836 534.61396,163.935507 534.116621,163.993272 L534,164 L533,164 C532.447715,164 532,163.552285 532,163 C532,162.487164 532.38604,162.064493 532.883379,162.006728 L533,162 L534,162 Z M529,162 C529.552285,162 530,162.447715 530,163 C530,163.512836 529.61396,163.935507 529.116621,163.993272 L529,164 L528,164 C527.447715,164 527,163.552285 527,163 C527,162.487164 527.38604,162.064493 527.883379,162.006728 L528,162 L529,162 Z M524,162 C524.552285,162 525,162.447715 525,163 C525,163.512836 524.61396,163.935507 524.116621,163.993272 L524,164 L523,164 C522.447715,164 522,163.552285 522,163 C522,162.487164 522.38604,162.064493 522.883379,162.006728 L523,162 L524,162 Z M519,162 C519.552285,162 520,162.447715 520,163 C520,163.512836 519.61396,163.935507 519.116621,163.993272 L519,164 L518,164 C517.447715,164 517,163.552285 517,163 C517,162.487164 517.38604,162.064493 517.883379,162.006728 L518,162 L519,162 Z M514,162 C514.552285,162 515,162.447715 515,163 C515,163.512836 514.61396,163.935507 514.116621,163.993272 L514,164 L513,164 C512.447715,164 512,163.552285 512,163 C512,162.487164 512.38604,162.064493 512.883379,162.006728 L513,162 L514,162 Z M509,162 C509.552285,162 510,162.447715 510,163 C510,163.512836 509.61396,163.935507 509.116621,163.993272 L509,164 L508,164 C507.447715,164 507,163.552285 507,163 C507,162.487164 507.38604,162.064493 507.883379,162.006728 L508,162 L509,162 Z M504,162 C504.552285,162 505,162.447715 505,163 C505,163.512836 504.61396,163.935507 504.116621,163.993272 L504,164 L503,164 C502.447715,164 502,163.552285 502,163 C502,162.487164 502.38604,162.064493 502.883379,162.006728 L503,162 L504,162 Z M499,162 C499.552285,162 500,162.447715 500,163 C500,163.512836 499.61396,163.935507 499.116621,163.993272 L499,164 L498,164 C497.447715,164 497,163.552285 497,163 C497,162.487164 497.38604,162.064493 497.883379,162.006728 L498,162 L499,162 Z M494,162 C494.552285,162 495,162.447715 495,163 C495,163.512836 494.61396,163.935507 494.116621,163.993272 L494,164 L493,164 C492.447715,164 492,163.552285 492,163 C492,162.487164 492.38604,162.064493 492.883379,162.006728 L493,162 L494,162 Z M489,162 C489.552285,162 490,162.447715 490,163 C490,163.512836 489.61396,163.935507 489.116621,163.993272 L489,164 L488,164 C487.447715,164 487,163.552285 487,163 C487,162.487164 487.38604,162.064493 487.883379,162.006728 L488,162 L489,162 Z M484,162 C484.552285,162 485,162.447715 485,163 C485,163.512836 484.61396,163.935507 484.116621,163.993272 L484,164 L483,164 C482.447715,164 482,163.552285 482,163 C482,162.487164 482.38604,162.064493 482.883379,162.006728 L483,162 L484,162 Z M479,162 C479.552285,162 480,162.447715 480,163 C480,163.512836 479.61396,163.935507 479.116621,163.993272 L479,164 L478,164 C477.447715,164 477,163.552285 477,163 C477,162.487164 477.38604,162.064493 477.883379,162.006728 L478,162 L479,162 Z M474,162 C474.552285,162 475,162.447715 475,163 C475,163.512836 474.61396,163.935507 474.116621,163.993272 L474,164 L473,164 C472.447715,164 472,163.552285 472,163 C472,162.487164 472.38604,162.064493 472.883379,162.006728 L473,162 L474,162 Z M469,162 C469.552285,162 470,162.447715 470,163 C470,163.512836 469.61396,163.935507 469.116621,163.993272 L469,164 L468,164 C467.447715,164 467,163.552285 467,163 C467,162.487164 467.38604,162.064493 467.883379,162.006728 L468,162 L469,162 Z M464,162 C464.552285,162 465,162.447715 465,163 C465,163.512836 464.61396,163.935507 464.116621,163.993272 L464,164 L463,164 C462.447715,164 462,163.552285 462,163 C462,162.487164 462.38604,162.064493 462.883379,162.006728 L463,162 L464,162 Z M459,162 C459.552285,162 460,162.447715 460,163 C460,163.512836 459.61396,163.935507 459.116621,163.993272 L459,164 L458,164 C457.447715,164 457,163.552285 457,163 C457,162.487164 457.38604,162.064493 457.883379,162.006728 L458,162 L459,162 Z M454,162 C454.552285,162 455,162.447715 455,163 C455,163.512836 454.61396,163.935507 454.116621,163.993272 L454,164 L453,164 C452.447715,164 452,163.552285 452,163 C452,162.487164 452.38604,162.064493 452.883379,162.006728 L453,162 L454,162 Z M449,162 C449.552285,162 450,162.447715 450,163 C450,163.512836 449.61396,163.935507 449.116621,163.993272 L449,164 L448,164 C447.447715,164 447,163.552285 447,163 C447,162.487164 447.38604,162.064493 447.883379,162.006728 L448,162 L449,162 Z M444,162 C444.552285,162 445,162.447715 445,163 C445,163.512836 444.61396,163.935507 444.116621,163.993272 L444,164 L443,164 C442.447715,164 442,163.552285 442,163 C442,162.487164 442.38604,162.064493 442.883379,162.006728 L443,162 L444,162 Z M439,162 C439.552285,162 440,162.447715 440,163 C440,163.512836 439.61396,163.935507 439.116621,163.993272 L439,164 L438,164 C437.447715,164 437,163.552285 437,163 C437,162.487164 437.38604,162.064493 437.883379,162.006728 L438,162 L439,162 Z M434,162 C434.552285,162 435,162.447715 435,163 C435,163.512836 434.61396,163.935507 434.116621,163.993272 L434,164 L433,164 C432.447715,164 432,163.552285 432,163 C432,162.487164 432.38604,162.064493 432.883379,162.006728 L433,162 L434,162 Z M429,162 C429.552285,162 430,162.447715 430,163 C430,163.512836 429.61396,163.935507 429.116621,163.993272 L429,164 L428,164 C427.447715,164 427,163.552285 427,163 C427,162.487164 427.38604,162.064493 427.883379,162.006728 L428,162 L429,162 Z M424,162 C424.552285,162 425,162.447715 425,163 C425,163.512836 424.61396,163.935507 424.116621,163.993272 L424,164 L423,164 C422.447715,164 422,163.552285 422,163 C422,162.487164 422.38604,162.064493 422.883379,162.006728 L423,162 L424,162 Z M419,162 C419.552285,162 420,162.447715 420,163 C420,163.512836 419.61396,163.935507 419.116621,163.993272 L419,164 L418,164 C417.447715,164 417,163.552285 417,163 C417,162.487164 417.38604,162.064493 417.883379,162.006728 L418,162 L419,162 Z M414,162 C414.552285,162 415,162.447715 415,163 C415,163.512836 414.61396,163.935507 414.116621,163.993272 L414,164 L413,164 C412.447715,164 412,163.552285 412,163 C412,162.487164 412.38604,162.064493 412.883379,162.006728 L413,162 L414,162 Z M409,162 C409.552285,162 410,162.447715 410,163 C410,163.512836 409.61396,163.935507 409.116621,163.993272 L409,164 L408,164 C407.447715,164 407,163.552285 407,163 C407,162.487164 407.38604,162.064493 407.883379,162.006728 L408,162 L409,162 Z M404,162 C404.552285,162 405,162.447715 405,163 C405,163.512836 404.61396,163.935507 404.116621,163.993272 L404,164 L403,164 C402.447715,164 402,163.552285 402,163 C402,162.487164 402.38604,162.064493 402.883379,162.006728 L403,162 L404,162 Z M399,162 C399.552285,162 400,162.447715 400,163 C400,163.512836 399.61396,163.935507 399.116621,163.993272 L399,164 L398,164 C397.447715,164 397,163.552285 397,163 C397,162.487164 397.38604,162.064493 397.883379,162.006728 L398,162 L399,162 Z M394,162 C394.552285,162 395,162.447715 395,163 C395,163.512836 394.61396,163.935507 394.116621,163.993272 L394,164 L393,164 C392.447715,164 392,163.552285 392,163 C392,162.487164 392.38604,162.064493 392.883379,162.006728 L393,162 L394,162 Z M129,162 C129.552285,162 130,162.447715 130,163 C130,163.512836 129.61396,163.935507 129.116621,163.993272 L129,164 L128,164 C127.447715,164 127,163.552285 127,163 C127,162.487164 127.38604,162.064493 127.883379,162.006728 L128,162 L129,162 Z M124,162 C124.552285,162 125,162.447715 125,163 C125,163.512836 124.61396,163.935507 124.116621,163.993272 L124,164 L123,164 C122.447715,164 122,163.552285 122,163 C122,162.487164 122.38604,162.064493 122.883379,162.006728 L123,162 L124,162 Z M379,162 C379.552285,162 380,162.447715 380,163 C380,163.512836 379.61396,163.935507 379.116621,163.993272 L379,164 L378,164 C377.447715,164 377,163.552285 377,163 C377,162.487164 377.38604,162.064493 377.883379,162.006728 L378,162 L379,162 Z M374,162 C374.552285,162 375,162.447715 375,163 C375,163.512836 374.61396,163.935507 374.116621,163.993272 L374,164 L373,164 C372.447715,164 372,163.552285 372,163 C372,162.487164 372.38604,162.064493 372.883379,162.006728 L373,162 L374,162 Z M369,162 C369.552285,162 370,162.447715 370,163 C370,163.512836 369.61396,163.935507 369.116621,163.993272 L369,164 L368,164 C367.447715,164 367,163.552285 367,163 C367,162.487164 367.38604,162.064493 367.883379,162.006728 L368,162 L369,162 Z M364,162 C364.552285,162 365,162.447715 365,163 C365,163.512836 364.61396,163.935507 364.116621,163.993272 L364,164 L363,164 C362.447715,164 362,163.552285 362,163 C362,162.487164 362.38604,162.064493 362.883379,162.006728 L363,162 L364,162 Z M359,162 C359.552285,162 360,162.447715 360,163 C360,163.512836 359.61396,163.935507 359.116621,163.993272 L359,164 L358,164 C357.447715,164 357,163.552285 357,163 C357,162.487164 357.38604,162.064493 357.883379,162.006728 L358,162 L359,162 Z M354,162 C354.552285,162 355,162.447715 355,163 C355,163.512836 354.61396,163.935507 354.116621,163.993272 L354,164 L353,164 C352.447715,164 352,163.552285 352,163 C352,162.487164 352.38604,162.064493 352.883379,162.006728 L353,162 L354,162 Z M349,162 C349.552285,162 350,162.447715 350,163 C350,163.512836 349.61396,163.935507 349.116621,163.993272 L349,164 L348,164 C347.447715,164 347,163.552285 347,163 C347,162.487164 347.38604,162.064493 347.883379,162.006728 L348,162 L349,162 Z M344,162 C344.552285,162 345,162.447715 345,163 C345,163.512836 344.61396,163.935507 344.116621,163.993272 L344,164 L343,164 C342.447715,164 342,163.552285 342,163 C342,162.487164 342.38604,162.064493 342.883379,162.006728 L343,162 L344,162 Z M339,162 C339.552285,162 340,162.447715 340,163 C340,163.512836 339.61396,163.935507 339.116621,163.993272 L339,164 L338,164 C337.447715,164 337,163.552285 337,163 C337,162.487164 337.38604,162.064493 337.883379,162.006728 L338,162 L339,162 Z M334,162 C334.552285,162 335,162.447715 335,163 C335,163.512836 334.61396,163.935507 334.116621,163.993272 L334,164 L333,164 C332.447715,164 332,163.552285 332,163 C332,162.487164 332.38604,162.064493 332.883379,162.006728 L333,162 L334,162 Z M329,162 C329.552285,162 330,162.447715 330,163 C330,163.512836 329.61396,163.935507 329.116621,163.993272 L329,164 L328,164 C327.447715,164 327,163.552285 327,163 C327,162.487164 327.38604,162.064493 327.883379,162.006728 L328,162 L329,162 Z M324,162 C324.552285,162 325,162.447715 325,163 C325,163.512836 324.61396,163.935507 324.116621,163.993272 L324,164 L323,164 C322.447715,164 322,163.552285 322,163 C322,162.487164 322.38604,162.064493 322.883379,162.006728 L323,162 L324,162 Z M319,162 C319.552285,162 320,162.447715 320,163 C320,163.512836 319.61396,163.935507 319.116621,163.993272 L319,164 L318,164 C317.447715,164 317,163.552285 317,163 C317,162.487164 317.38604,162.064493 317.883379,162.006728 L318,162 L319,162 Z M314,162 C314.552285,162 315,162.447715 315,163 C315,163.512836 314.61396,163.935507 314.116621,163.993272 L314,164 L313,164 C312.447715,164 312,163.552285 312,163 C312,162.487164 312.38604,162.064493 312.883379,162.006728 L313,162 L314,162 Z M309,162 C309.552285,162 310,162.447715 310,163 C310,163.512836 309.61396,163.935507 309.116621,163.993272 L309,164 L308,164 C307.447715,164 307,163.552285 307,163 C307,162.487164 307.38604,162.064493 307.883379,162.006728 L308,162 L309,162 Z M304,162 C304.552285,162 305,162.447715 305,163 C305,163.512836 304.61396,163.935507 304.116621,163.993272 L304,164 L303,164 C302.447715,164 302,163.552285 302,163 C302,162.487164 302.38604,162.064493 302.883379,162.006728 L303,162 L304,162 Z M299,162 C299.552285,162 300,162.447715 300,163 C300,163.512836 299.61396,163.935507 299.116621,163.993272 L299,164 L298,164 C297.447715,164 297,163.552285 297,163 C297,162.487164 297.38604,162.064493 297.883379,162.006728 L298,162 L299,162 Z M294,162 C294.552285,162 295,162.447715 295,163 C295,163.512836 294.61396,163.935507 294.116621,163.993272 L294,164 L293,164 C292.447715,164 292,163.552285 292,163 C292,162.487164 292.38604,162.064493 292.883379,162.006728 L293,162 L294,162 Z M289,162 C289.552285,162 290,162.447715 290,163 C290,163.512836 289.61396,163.935507 289.116621,163.993272 L289,164 L288,164 C287.447715,164 287,163.552285 287,163 C287,162.487164 287.38604,162.064493 287.883379,162.006728 L288,162 L289,162 Z M284,162 C284.552285,162 285,162.447715 285,163 C285,163.512836 284.61396,163.935507 284.116621,163.993272 L284,164 L283,164 C282.447715,164 282,163.552285 282,163 C282,162.487164 282.38604,162.064493 282.883379,162.006728 L283,162 L284,162 Z M279,162 C279.552285,162 280,162.447715 280,163 C280,163.512836 279.61396,163.935507 279.116621,163.993272 L279,164 L278,164 C277.447715,164 277,163.552285 277,163 C277,162.487164 277.38604,162.064493 277.883379,162.006728 L278,162 L279,162 Z M274,162 C274.552285,162 275,162.447715 275,163 C275,163.512836 274.61396,163.935507 274.116621,163.993272 L274,164 L273,164 C272.447715,164 272,163.552285 272,163 C272,162.487164 272.38604,162.064493 272.883379,162.006728 L273,162 L274,162 Z M269,162 C269.552285,162 270,162.447715 270,163 C270,163.512836 269.61396,163.935507 269.116621,163.993272 L269,164 L268,164 C267.447715,164 267,163.552285 267,163 C267,162.487164 267.38604,162.064493 267.883379,162.006728 L268,162 L269,162 Z M264,162 C264.552285,162 265,162.447715 265,163 C265,163.512836 264.61396,163.935507 264.116621,163.993272 L264,164 L263,164 C262.447715,164 262,163.552285 262,163 C262,162.487164 262.38604,162.064493 262.883379,162.006728 L263,162 L264,162 Z M259,162 C259.552285,162 260,162.447715 260,163 C260,163.512836 259.61396,163.935507 259.116621,163.993272 L259,164 L258,164 C257.447715,164 257,163.552285 257,163 C257,162.487164 257.38604,162.064493 257.883379,162.006728 L258,162 L259,162 Z M254,162 C254.552285,162 255,162.447715 255,163 C255,163.512836 254.61396,163.935507 254.116621,163.993272 L254,164 L253,164 C252.447715,164 252,163.552285 252,163 C252,162.487164 252.38604,162.064493 252.883379,162.006728 L253,162 L254,162 Z M249,162 C249.552285,162 250,162.447715 250,163 C250,163.512836 249.61396,163.935507 249.116621,163.993272 L249,164 L248,164 C247.447715,164 247,163.552285 247,163 C247,162.487164 247.38604,162.064493 247.883379,162.006728 L248,162 L249,162 Z M244,162 C244.552285,162 245,162.447715 245,163 C245,163.512836 244.61396,163.935507 244.116621,163.993272 L244,164 L243,164 C242.447715,164 242,163.552285 242,163 C242,162.487164 242.38604,162.064493 242.883379,162.006728 L243,162 L244,162 Z M239,162 C239.552285,162 240,162.447715 240,163 C240,163.512836 239.61396,163.935507 239.116621,163.993272 L239,164 L238,164 C237.447715,164 237,163.552285 237,163 C237,162.487164 237.38604,162.064493 237.883379,162.006728 L238,162 L239,162 Z M234,162 C234.552285,162 235,162.447715 235,163 C235,163.512836 234.61396,163.935507 234.116621,163.993272 L234,164 L233,164 C232.447715,164 232,163.552285 232,163 C232,162.487164 232.38604,162.064493 232.883379,162.006728 L233,162 L234,162 Z M229,162 C229.552285,162 230,162.447715 230,163 C230,163.512836 229.61396,163.935507 229.116621,163.993272 L229,164 L228,164 C227.447715,164 227,163.552285 227,163 C227,162.487164 227.38604,162.064493 227.883379,162.006728 L228,162 L229,162 Z M224,162 C224.552285,162 225,162.447715 225,163 C225,163.512836 224.61396,163.935507 224.116621,163.993272 L224,164 L223,164 C222.447715,164 222,163.552285 222,163 C222,162.487164 222.38604,162.064493 222.883379,162.006728 L223,162 L224,162 Z M219,162 C219.552285,162 220,162.447715 220,163 C220,163.512836 219.61396,163.935507 219.116621,163.993272 L219,164 L218,164 C217.447715,164 217,163.552285 217,163 C217,162.487164 217.38604,162.064493 217.883379,162.006728 L218,162 L219,162 Z M214,162 C214.552285,162 215,162.447715 215,163 C215,163.512836 214.61396,163.935507 214.116621,163.993272 L214,164 L213,164 C212.447715,164 212,163.552285 212,163 C212,162.487164 212.38604,162.064493 212.883379,162.006728 L213,162 L214,162 Z M209,162 C209.552285,162 210,162.447715 210,163 C210,163.512836 209.61396,163.935507 209.116621,163.993272 L209,164 L208,164 C207.447715,164 207,163.552285 207,163 C207,162.487164 207.38604,162.064493 207.883379,162.006728 L208,162 L209,162 Z M204,162 C204.552285,162 205,162.447715 205,163 C205,163.512836 204.61396,163.935507 204.116621,163.993272 L204,164 L203,164 C202.447715,164 202,163.552285 202,163 C202,162.487164 202.38604,162.064493 202.883379,162.006728 L203,162 L204,162 Z M199,162 C199.552285,162 200,162.447715 200,163 C200,163.512836 199.61396,163.935507 199.116621,163.993272 L199,164 L198,164 C197.447715,164 197,163.552285 197,163 C197,162.487164 197.38604,162.064493 197.883379,162.006728 L198,162 L199,162 Z M194,162 C194.552285,162 195,162.447715 195,163 C195,163.512836 194.61396,163.935507 194.116621,163.993272 L194,164 L193,164 C192.447715,164 192,163.552285 192,163 C192,162.487164 192.38604,162.064493 192.883379,162.006728 L193,162 L194,162 Z M189,162 C189.552285,162 190,162.447715 190,163 C190,163.512836 189.61396,163.935507 189.116621,163.993272 L189,164 L188,164 C187.447715,164 187,163.552285 187,163 C187,162.487164 187.38604,162.064493 187.883379,162.006728 L188,162 L189,162 Z M184,162 C184.552285,162 185,162.447715 185,163 C185,163.512836 184.61396,163.935507 184.116621,163.993272 L184,164 L183,164 C182.447715,164 182,163.552285 182,163 C182,162.487164 182.38604,162.064493 182.883379,162.006728 L183,162 L184,162 Z M179,162 C179.552285,162 180,162.447715 180,163 C180,163.512836 179.61396,163.935507 179.116621,163.993272 L179,164 L178,164 C177.447715,164 177,163.552285 177,163 C177,162.487164 177.38604,162.064493 177.883379,162.006728 L178,162 L179,162 Z M174,162 C174.552285,162 175,162.447715 175,163 C175,163.512836 174.61396,163.935507 174.116621,163.993272 L174,164 L173,164 C172.447715,164 172,163.552285 172,163 C172,162.487164 172.38604,162.064493 172.883379,162.006728 L173,162 L174,162 Z M169,162 C169.552285,162 170,162.447715 170,163 C170,163.512836 169.61396,163.935507 169.116621,163.993272 L169,164 L168,164 C167.447715,164 167,163.552285 167,163 C167,162.487164 167.38604,162.064493 167.883379,162.006728 L168,162 L169,162 Z M164,162 C164.552285,162 165,162.447715 165,163 C165,163.512836 164.61396,163.935507 164.116621,163.993272 L164,164 L163,164 C162.447715,164 162,163.552285 162,163 C162,162.487164 162.38604,162.064493 162.883379,162.006728 L163,162 L164,162 Z M159,162 C159.552285,162 160,162.447715 160,163 C160,163.512836 159.61396,163.935507 159.116621,163.993272 L159,164 L158,164 C157.447715,164 157,163.552285 157,163 C157,162.487164 157.38604,162.064493 157.883379,162.006728 L158,162 L159,162 Z M154,162 C154.552285,162 155,162.447715 155,163 C155,163.512836 154.61396,163.935507 154.116621,163.993272 L154,164 L153,164 C152.447715,164 152,163.552285 152,163 C152,162.487164 152.38604,162.064493 152.883379,162.006728 L153,162 L154,162 Z M149,162 C149.552285,162 150,162.447715 150,163 C150,163.512836 149.61396,163.935507 149.116621,163.993272 L149,164 L148,164 C147.447715,164 147,163.552285 147,163 C147,162.487164 147.38604,162.064493 147.883379,162.006728 L148,162 L149,162 Z M144,162 C144.552285,162 145,162.447715 145,163 C145,163.512836 144.61396,163.935507 144.116621,163.993272 L144,164 L143,164 C142.447715,164 142,163.552285 142,163 C142,162.487164 142.38604,162.064493 142.883379,162.006728 L143,162 L144,162 Z M139,162 C139.552285,162 140,162.447715 140,163 C140,163.512836 139.61396,163.935507 139.116621,163.993272 L139,164 L138,164 C137.447715,164 137,163.552285 137,163 C137,162.487164 137.38604,162.064493 137.883379,162.006728 L138,162 L139,162 Z M134,162 C134.552285,162 135,162.447715 135,163 C135,163.512836 134.61396,163.935507 134.116621,163.993272 L134,164 L133,164 C132.447715,164 132,163.552285 132,163 C132,162.487164 132.38604,162.064493 132.883379,162.006728 L133,162 L134,162 Z M85,160 C85.5128358,160 85.9355072,160.38604 85.9932723,160.883379 L86,161 L86,162 C86,162.552285 85.5522847,163 85,163 C84.4871642,163 84.0644928,162.61396 84.0067277,162.116621 L84,162 L84,161 C84,160.447715 84.4477153,160 85,160 Z M672,160 C672.512836,160 672.935507,160.38604 672.993272,160.883379 L673,161 L673,162 C673,162.552285 672.552285,163 672,163 C671.487164,163 671.064493,162.61396 671.006728,162.116621 L671,162 L671,161 C671,160.447715 671.447715,160 672,160 Z M672,155 C672.512836,155 672.935507,155.38604 672.993272,155.883379 L673,156 L673,157 C673,157.552285 672.552285,158 672,158 C671.487164,158 671.064493,157.61396 671.006728,157.116621 L671,157 L671,156 C671,155.447715 671.447715,155 672,155 Z M85,155 C85.5128358,155 85.9355072,155.38604 85.9932723,155.883379 L86,156 L86,157 C86,157.552285 85.5522847,158 85,158 C84.4871642,158 84.0644928,157.61396 84.0067277,157.116621 L84,157 L84,156 C84,155.447715 84.4477153,155 85,155 Z M672,150 C672.512836,150 672.935507,150.38604 672.993272,150.883379 L673,151 L673,152 C673,152.552285 672.552285,153 672,153 C671.487164,153 671.064493,152.61396 671.006728,152.116621 L671,152 L671,151 C671,150.447715 671.447715,150 672,150 Z M85,150 C85.5128358,150 85.9355072,150.38604 85.9932723,150.883379 L86,151 L86,152 C86,152.552285 85.5522847,153 85,153 C84.4871642,153 84.0644928,152.61396 84.0067277,152.116621 L84,152 L84,151 C84,150.447715 84.4477153,150 85,150 Z M672,145 C672.512836,145 672.935507,145.38604 672.993272,145.883379 L673,146 L673,147 C673,147.552285 672.552285,148 672,148 C671.487164,148 671.064493,147.61396 671.006728,147.116621 L671,147 L671,146 C671,145.447715 671.447715,145 672,145 Z M85,145 C85.5128358,145 85.9355072,145.38604 85.9932723,145.883379 L86,146 L86,147 C86,147.552285 85.5522847,148 85,148 C84.4871642,148 84.0644928,147.61396 84.0067277,147.116621 L84,147 L84,146 C84,145.447715 84.4477153,145 85,145 Z M672,140 C672.512836,140 672.935507,140.38604 672.993272,140.883379 L673,141 L673,142 C673,142.552285 672.552285,143 672,143 C671.487164,143 671.064493,142.61396 671.006728,142.116621 L671,142 L671,141 C671,140.447715 671.447715,140 672,140 Z M85,140 C85.5128358,140 85.9355072,140.38604 85.9932723,140.883379 L86,141 L86,142 C86,142.552285 85.5522847,143 85,143 C84.4871642,143 84.0644928,142.61396 84.0067277,142.116621 L84,142 L84,141 C84,140.447715 84.4477153,140 85,140 Z M84.2529586,125.684046 C84.4592232,125.271517 84.9608544,125.104306 85.3733835,125.310571 C85.5350012,125.391379 85.6660496,125.522428 85.7468584,125.684046 L85.7468584,125.684046 L91.9116516,138.013632 C92.1179161,138.426161 91.9507057,138.927792 91.5381766,139.134057 C91.4222163,139.192037 91.2943493,139.222222 91.1647017,139.222222 L91.1647017,139.222222 L78.8351154,139.222222 C78.3738939,139.222222 78,138.848328 78,138.387107 C78,138.257459 78.0301853,138.129592 78.0881655,138.013632 L78.0881655,138.013632 Z M672,135 C672.512836,135 672.935507,135.38604 672.993272,135.883379 L673,136 L673,137 C673,137.552285 672.552285,138 672,138 C671.487164,138 671.064493,137.61396 671.006728,137.116621 L671,137 L671,136 C671,135.447715 671.447715,135 672,135 Z M672,130 C672.512836,130 672.935507,130.38604 672.993272,130.883379 L673,131 L673,132 C673,132.552285 672.552285,133 672,133 C671.487164,133 671.064493,132.61396 671.006728,132.116621 L671,132 L671,131 C671,130.447715 671.447715,130 672,130 Z M672,125 C672.512836,125 672.935507,125.38604 672.993272,125.883379 L673,126 L673,127 C673,127.552285 672.552285,128 672,128 C671.487164,128 671.064493,127.61396 671.006728,127.116621 L671,127 L671,126 C671,125.447715 671.447715,125 672,125 Z" fill="#000000" fill-rule="nonzero"></path>
        <g id="Action/State-button" transform="translate(343.000000, 153.000000)">
            <rect id="Rectangle-368" stroke="#0B0C0C" stroke-width="2" fill="#FFFFFF" x="1" y="1" width="70" height="18" rx="9"></rect>
            <text id="Action-/-State-chang" font-family="ArialMT, Arial" font-size="8" font-weight="normal" fill="#0B0C0C">
                <tspan x="13.7550781" y="13">Add another</tspan>
            </text>
        </g>
        <g id="Wide-Question-Page-(Text-input)-Copy-5" transform="translate(30.000000, 30.000000)">
            <g id="Page-boundaries">
                <rect id="Rectangle" stroke="#0B0C0C" stroke-width="2" fill="#FFFFFF" x="1" y="1" width="108" height="94"></rect>
                <rect id="Rectangle" fill="#0B0C0C" x="0" y="0" width="110" height="10"></rect>
            </g>
            <g id="Click-Area" transform="translate(7.000000, 54.000000)">
                <use fill="#00823B" fill-rule="evenodd" xlink:href="#path-7"></use>
                <use fill="black" fill-opacity="1" filter="url(#filter-8)" xlink:href="#path-7"></use>
            </g>
            <g id="Text-input-group" transform="translate(7.000000, 34.000000)" fill="#FFFFFF" stroke="#0B0C0C">
                <rect id="Text-Input" x="0.5" y="0.5" width="71" height="9"></rect>
            </g>
            <g id="Heading" transform="translate(7.000000, 15.000000)" fill="#231F20" font-family="Arial-BoldMT, Arial" font-size="10" font-weight="bold" line-spacing="11">
                <text id="Question">
                    <tspan x="0" y="9">Question</tspan>
                </text>
            </g>
        </g>
        <g id="Wide-Question-Page-(Text-input)-Copy-5" transform="translate(324.000000, 30.000000)">
            <g id="Page-boundaries">
                <rect id="Rectangle" stroke="#0B0C0C" stroke-width="2" fill="#FFFFFF" x="1" y="1" width="108" height="94"></rect>
                <rect id="Rectangle" fill="#0B0C0C" x="0" y="0" width="110" height="10"></rect>
            </g>
            <g id="Click-Area" transform="translate(7.000000, 54.000000)">
                <use fill="#00823B" fill-rule="evenodd" xlink:href="#path-9"></use>
                <use fill="black" fill-opacity="1" filter="url(#filter-10)" xlink:href="#path-9"></use>
            </g>
            <g id="Text-input-group" transform="translate(7.000000, 34.000000)" fill="#FFFFFF" stroke="#0B0C0C">
                <rect id="Text-Input" x="0.5" y="0.5" width="71" height="9"></rect>
            </g>
            <g id="Heading" transform="translate(7.000000, 15.000000)" fill="#231F20" font-family="Arial-BoldMT, Arial" font-size="10" font-weight="bold" line-spacing="11">
                <text id="Question">
                    <tspan x="0" y="9">Question</tspan>
                </text>
            </g>
        </g>
        <g id="Wide-Question-Page-(Radios)-Copy-3" transform="translate(177.000000, 30.000000)">
            <g id="Page-boundaries">
                <rect id="Rectangle" stroke="#0B0C0C" stroke-width="2" fill="#FFFFFF" x="1" y="1" width="108" height="94"></rect>
                <rect id="Rectangle" fill="#0B0C0C" x="0" y="0" width="110" height="10"></rect>
            </g>
            <g id="Click-Area" transform="translate(7.000000, 65.000000)">
                <use fill="#00823B" fill-rule="evenodd" xlink:href="#path-11"></use>
                <use fill="black" fill-opacity="1" filter="url(#filter-12)" xlink:href="#path-11"></use>
            </g>
            <g id="Radios" transform="translate(7.000000, 34.000000)">
                <g id="Radio-group-Copy" transform="translate(0.000000, 13.000000)">
                    <rect id="Label" fill="#0B0C0C" x="13" y="5" width="25" height="1"></rect>
                    <circle id="Radio-Unselected" stroke="#0B0C0C" fill="#FFFFFF" cx="5" cy="5" r="4.5"></circle>
                </g>
                <g id="Radio-group">
                    <rect id="Label" fill="#0B0C0C" x="13" y="5" width="25" height="1"></rect>
                    <circle id="Radio-Unselected" stroke="#0B0C0C" fill="#FFFFFF" cx="5" cy="5" r="4.5"></circle>
                </g>
            </g>
            <g id="Heading" transform="translate(7.000000, 15.000000)" fill="#231F20" font-family="Arial-BoldMT, Arial" font-size="10" font-weight="bold" line-spacing="11">
                <text id="Question">
                    <tspan x="0" y="9">Question</tspan>
                </text>
            </g>
        </g>
    </g>
</svg>