<?xml version="1.0" encoding="UTF-8"?>
<svg width="963px" height="270px" viewBox="0 0 963 270" version="1.1" xmlns="http://www.w3.org/2000/svg" xmlns:xlink="http://www.w3.org/1999/xlink">
    <title>multi-page item - change and remove</title>
    <defs>
        <rect id="path-1" x="0" y="0" width="26" height="10"></rect>
        <filter x="-1.9%" y="-5.0%" width="103.8%" height="110.0%" filterUnits="objectBoundingBox" id="filter-2">
            <feOffset dx="0" dy="-1" in="SourceAlpha" result="shadowOffsetInner1"></feOffset>
            <feComposite in="shadowOffsetInner1" in2="SourceAlpha" operator="arithmetic" k2="-1" k3="1" result="shadowInnerInner1"></feComposite>
            <feColorMatrix values="0 0 0 0 0   0 0 0 0 0.392156863   0 0 0 0 0.207843137  0 0 0 1 0" type="matrix" in="shadowInnerInner1"></feColorMatrix>
        </filter>
        <rect id="path-3" x="0" y="0" width="26" height="10"></rect>
        <filter x="-1.9%" y="-5.0%" width="103.8%" height="110.0%" filterUnits="objectBoundingBox" id="filter-4">
            <feOffset dx="0" dy="-1" in="SourceAlpha" result="shadowOffsetInner1"></feOffset>
            <feComposite in="shadowOffsetInner1" in2="SourceAlpha" operator="arithmetic" k2="-1" k3="1" result="shadowInnerInner1"></feComposite>
            <feColorMatrix values="0 0 0 0 0   0 0 0 0 0.392156863   0 0 0 0 0.207843137  0 0 0 1 0" type="matrix" in="shadowInnerInner1"></feColorMatrix>
        </filter>
        <rect id="path-5" x="0" y="0" width="26" height="10"></rect>
        <filter x="-1.9%" y="-5.0%" width="103.8%" height="110.0%" filterUnits="objectBoundingBox" id="filter-6">
            <feOffset dx="0" dy="-1" in="SourceAlpha" result="shadowOffsetInner1"></feOffset>
            <feComposite in="shadowOffsetInner1" in2="SourceAlpha" operator="arithmetic" k2="-1" k3="1" result="shadowInnerInner1"></feComposite>
            <feColorMatrix values="0 0 0 0 0.566726888   0 0 0 0 0.574046853   0 0 0 0 0.581489895  0 0 0 1 0" type="matrix" in="shadowInnerInner1"></feColorMatrix>
        </filter>
        <rect id="path-7" x="32" y="0" width="26" height="10"></rect>
        <filter x="-1.9%" y="-5.0%" width="103.8%" height="110.0%" filterUnits="objectBoundingBox" id="filter-8">
            <feOffset dx="0" dy="-1" in="SourceAlpha" result="shadowOffsetInner1"></feOffset>
            <feComposite in="shadowOffsetInner1" in2="SourceAlpha" operator="arithmetic" k2="-1" k3="1" result="shadowInnerInner1"></feComposite>
            <feColorMatrix values="0 0 0 0 0   0 0 0 0 0.392156863   0 0 0 0 0.207843137  0 0 0 1 0" type="matrix" in="shadowInnerInner1"></feColorMatrix>
        </filter>
        <rect id="path-9" x="0" y="0" width="26" height="10"></rect>
        <filter x="-1.9%" y="-5.0%" width="103.8%" height="110.0%" filterUnits="objectBoundingBox" id="filter-10">
            <feOffset dx="0" dy="-1" in="SourceAlpha" result="shadowOffsetInner1"></feOffset>
            <feComposite in="shadowOffsetInner1" in2="SourceAlpha" operator="arithmetic" k2="-1" k3="1" result="shadowInnerInner1"></feComposite>
            <feColorMatrix values="0 0 0 0 0   0 0 0 0 0.392156863   0 0 0 0 0.207843137  0 0 0 1 0" type="matrix" in="shadowInnerInner1"></feColorMatrix>
        </filter>
        <rect id="path-11" x="0" y="0" width="26" height="10"></rect>
        <filter x="-1.9%" y="-5.0%" width="103.8%" height="110.0%" filterUnits="objectBoundingBox" id="filter-12">
            <feOffset dx="0" dy="-1" in="SourceAlpha" result="shadowOffsetInner1"></feOffset>
            <feComposite in="shadowOffsetInner1" in2="SourceAlpha" operator="arithmetic" k2="-1" k3="1" result="shadowInnerInner1"></feComposite>
            <feColorMatrix values="0 0 0 0 0   0 0 0 0 0.392156863   0 0 0 0 0.207843137  0 0 0 1 0" type="matrix" in="shadowInnerInner1"></feColorMatrix>
        </filter>
        <rect id="path-13" x="0" y="0" width="26" height="10"></rect>
        <filter x="-1.9%" y="-5.0%" width="103.8%" height="110.0%" filterUnits="objectBoundingBox" id="filter-14">
            <feOffset dx="0" dy="-1" in="SourceAlpha" result="shadowOffsetInner1"></feOffset>
            <feComposite in="shadowOffsetInner1" in2="SourceAlpha" operator="arithmetic" k2="-1" k3="1" result="shadowInnerInner1"></feComposite>
            <feColorMatrix values="0 0 0 0 0   0 0 0 0 0.392156863   0 0 0 0 0.207843137  0 0 0 1 0" type="matrix" in="shadowInnerInner1"></feColorMatrix>
        </filter>
    </defs>
    <g id="multi-page-item---change-and-remove" stroke="none" stroke-width="1" fill="none" fill-rule="evenodd">
        <rect fill="#FFFFFF" x="0" y="0" width="963" height="270"></rect>
        <path id="Line-2-Copy" d="M609,162 C609.552285,162 610,162.447715 610,163 C610,163.512836 609.61396,163.935507 609.116621,163.993272 L609,164 L608,164 C607.447715,164 607,163.552285 607,163 C607,162.487164 607.38604,162.064493 607.883379,162.006728 L608,162 L609,162 Z M604,162 C604.552285,162 605,162.447715 605,163 C605,163.512836 604.61396,163.935507 604.116621,163.993272 L604,164 L603,164 C602.447715,164 602,163.552285 602,163 C602,162.487164 602.38604,162.064493 602.883379,162.006728 L603,162 L604,162 Z M529,162 C529.552285,162 530,162.447715 530,163 C530,163.512836 529.61396,163.935507 529.116621,163.993272 L529,164 L528,164 C527.447715,164 527,163.552285 527,163 C527,162.487164 527.38604,162.064493 527.883379,162.006728 L528,162 L529,162 Z M534,162 C534.552285,162 535,162.447715 535,163 C535,163.512836 534.61396,163.935507 534.116621,163.993272 L534,164 L533,164 C532.447715,164 532,163.552285 532,163 C532,162.487164 532.38604,162.064493 532.883379,162.006728 L533,162 L534,162 Z M539,162 C539.552285,162 540,162.447715 540,163 C540,163.512836 539.61396,163.935507 539.116621,163.993272 L539,164 L538,164 C537.447715,164 537,163.552285 537,163 C537,162.487164 537.38604,162.064493 537.883379,162.006728 L538,162 L539,162 Z M544,162 C544.552285,162 545,162.447715 545,163 C545,163.512836 544.61396,163.935507 544.116621,163.993272 L544,164 L543,164 C542.447715,164 542,163.552285 542,163 C542,162.487164 542.38604,162.064493 542.883379,162.006728 L543,162 L544,162 Z M549,162 C549.552285,162 550,162.447715 550,163 C550,163.512836 549.61396,163.935507 549.116621,163.993272 L549,164 L548,164 C547.447715,164 547,163.552285 547,163 C547,162.487164 547.38604,162.064493 547.883379,162.006728 L548,162 L549,162 Z M554,162 C554.552285,162 555,162.447715 555,163 C555,163.512836 554.61396,163.935507 554.116621,163.993272 L554,164 L553,164 C552.447715,164 552,163.552285 552,163 C552,162.487164 552.38604,162.064493 552.883379,162.006728 L553,162 L554,162 Z M559,162 C559.552285,162 560,162.447715 560,163 C560,163.512836 559.61396,163.935507 559.116621,163.993272 L559,164 L558,164 C557.447715,164 557,163.552285 557,163 C557,162.487164 557.38604,162.064493 557.883379,162.006728 L558,162 L559,162 Z M669,162 C669.552285,162 670,162.447715 670,163 C670,163.512836 669.61396,163.935507 669.116621,163.993272 L669,164 L668,164 C667.447715,164 667,163.552285 667,163 C667,162.487164 667.38604,162.064493 667.883379,162.006728 L668,162 L669,162 Z M664,162 C664.552285,162 665,162.447715 665,163 C665,163.512836 664.61396,163.935507 664.116621,163.993272 L664,164 L663,164 C662.447715,164 662,163.552285 662,163 C662,162.487164 662.38604,162.064493 662.883379,162.006728 L663,162 L664,162 Z M659,162 C659.552285,162 660,162.447715 660,163 C660,163.512836 659.61396,163.935507 659.116621,163.993272 L659,164 L658,164 C657.447715,164 657,163.552285 657,163 C657,162.487164 657.38604,162.064493 657.883379,162.006728 L658,162 L659,162 Z M654,162 C654.552285,162 655,162.447715 655,163 C655,163.512836 654.61396,163.935507 654.116621,163.993272 L654,164 L653,164 C652.447715,164 652,163.552285 652,163 C652,162.487164 652.38604,162.064493 652.883379,162.006728 L653,162 L654,162 Z M649,162 C649.552285,162 650,162.447715 650,163 C650,163.512836 649.61396,163.935507 649.116621,163.993272 L649,164 L648,164 C647.447715,164 647,163.552285 647,163 C647,162.487164 647.38604,162.064493 647.883379,162.006728 L648,162 L649,162 Z M644,162 C644.552285,162 645,162.447715 645,163 C645,163.512836 644.61396,163.935507 644.116621,163.993272 L644,164 L643,164 C642.447715,164 642,163.552285 642,163 C642,162.487164 642.38604,162.064493 642.883379,162.006728 L643,162 L644,162 Z M639,162 C639.552285,162 640,162.447715 640,163 C640,163.512836 639.61396,163.935507 639.116621,163.993272 L639,164 L638,164 C637.447715,164 637,163.552285 637,163 C637,162.487164 637.38604,162.064493 637.883379,162.006728 L638,162 L639,162 Z M634,162 C634.552285,162 635,162.447715 635,163 C635,163.512836 634.61396,163.935507 634.116621,163.993272 L634,164 L633,164 C632.447715,164 632,163.552285 632,163 C632,162.487164 632.38604,162.064493 632.883379,162.006728 L633,162 L634,162 Z M629,162 C629.552285,162 630,162.447715 630,163 C630,163.512836 629.61396,163.935507 629.116621,163.993272 L629,164 L628,164 C627.447715,164 627,163.552285 627,163 C627,162.487164 627.38604,162.064493 627.883379,162.006728 L628,162 L629,162 Z M624,162 C624.552285,162 625,162.447715 625,163 C625,163.512836 624.61396,163.935507 624.116621,163.993272 L624,164 L623,164 C622.447715,164 622,163.552285 622,163 C622,162.487164 622.38604,162.064493 622.883379,162.006728 L623,162 L624,162 Z M619,162 C619.552285,162 620,162.447715 620,163 C620,163.512836 619.61396,163.935507 619.116621,163.993272 L619,164 L618,164 C617.447715,164 617,163.552285 617,163 C617,162.487164 617.38604,162.064493 617.883379,162.006728 L618,162 L619,162 Z M614,162 C614.552285,162 615,162.447715 615,163 C615,163.512836 614.61396,163.935507 614.116621,163.993272 L614,164 L613,164 C612.447715,164 612,163.552285 612,163 C612,162.487164 612.38604,162.064493 612.883379,162.006728 L613,162 L614,162 Z M569,162 C569.552285,162 570,162.447715 570,163 C570,163.512836 569.61396,163.935507 569.116621,163.993272 L569,164 L568,164 C567.447715,164 567,163.552285 567,163 C567,162.487164 567.38604,162.064493 567.883379,162.006728 L568,162 L569,162 Z M564,162 C564.552285,162 565,162.447715 565,163 C565,163.512836 564.61396,163.935507 564.116621,163.993272 L564,164 L563,164 C562.447715,164 562,163.552285 562,163 C562,162.487164 562.38604,162.064493 562.883379,162.006728 L563,162 L564,162 Z M599,162 C599.552285,162 600,162.447715 600,163 C600,163.512836 599.61396,163.935507 599.116621,163.993272 L599,164 L598,164 C597.447715,164 597,163.552285 597,163 C597,162.487164 597.38604,162.064493 597.883379,162.006728 L598,162 L599,162 Z M594,162 C594.552285,162 595,162.447715 595,163 C595,163.512836 594.61396,163.935507 594.116621,163.993272 L594,164 L593,164 C592.447715,164 592,163.552285 592,163 C592,162.487164 592.38604,162.064493 592.883379,162.006728 L593,162 L594,162 Z M589,162 C589.552285,162 590,162.447715 590,163 C590,163.512836 589.61396,163.935507 589.116621,163.993272 L589,164 L588,164 C587.447715,164 587,163.552285 587,163 C587,162.487164 587.38604,162.064493 587.883379,162.006728 L588,162 L589,162 Z M584,162 C584.552285,162 585,162.447715 585,163 C585,163.512836 584.61396,163.935507 584.116621,163.993272 L584,164 L583,164 C582.447715,164 582,163.552285 582,163 C582,162.487164 582.38604,162.064493 582.883379,162.006728 L583,162 L584,162 Z M579,162 C579.552285,162 580,162.447715 580,163 C580,163.512836 579.61396,163.935507 579.116621,163.993272 L579,164 L578,164 C577.447715,164 577,163.552285 577,163 C577,162.487164 577.38604,162.064493 577.883379,162.006728 L578,162 L579,162 Z M574,162 C574.552285,162 575,162.447715 575,163 C575,163.512836 574.61396,163.935507 574.116621,163.993272 L574,164 L573,164 C572.447715,164 572,163.552285 572,163 C572,162.487164 572.38604,162.064493 572.883379,162.006728 L573,162 L574,162 Z M672,160 C672.512836,160 672.935507,160.38604 672.993272,160.883379 L673,161 L673,162 C673,162.552285 672.552285,163 672,163 C671.487164,163 671.064493,162.61396 671.006728,162.116621 L671,162 L671,161 C671,160.447715 671.447715,160 672,160 Z M526,159 C526.512836,159 526.935507,159.38604 526.993272,159.883379 L527,160 L527,161 C527,161.552285 526.552285,162 526,162 C525.487164,162 525.064493,161.61396 525.006728,161.116621 L525,161 L525,160 C525,159.447715 525.447715,159 526,159 Z M672,155 C672.512836,155 672.935507,155.38604 672.993272,155.883379 L673,156 L673,157 C673,157.552285 672.552285,158 672,158 C671.487164,158 671.064493,157.61396 671.006728,157.116621 L671,157 L671,156 C671,155.447715 671.447715,155 672,155 Z M526,154 C526.512836,154 526.935507,154.38604 526.993272,154.883379 L527,155 L527,156 C527,156.552285 526.552285,157 526,157 C525.487164,157 525.064493,156.61396 525.006728,156.116621 L525,156 L525,155 C525,154.447715 525.447715,154 526,154 Z M672,150 C672.512836,150 672.935507,150.38604 672.993272,150.883379 L673,151 L673,152 C673,152.552285 672.552285,153 672,153 C671.487164,153 671.064493,152.61396 671.006728,152.116621 L671,152 L671,151 C671,150.447715 671.447715,150 672,150 Z M526,149 C526.512836,149 526.935507,149.38604 526.993272,149.883379 L527,150 L527,151 C527,151.552285 526.552285,152 526,152 C525.487164,152 525.064493,151.61396 525.006728,151.116621 L525,151 L525,150 C525,149.447715 525.447715,149 526,149 Z M672,145 C672.512836,145 672.935507,145.38604 672.993272,145.883379 L673,146 L673,147 C673,147.552285 672.552285,148 672,148 C671.487164,148 671.064493,147.61396 671.006728,147.116621 L671,147 L671,146 C671,145.447715 671.447715,145 672,145 Z M526,144 C526.512836,144 526.935507,144.38604 526.993272,144.883379 L527,145 L527,146 C527,146.552285 526.552285,147 526,147 C525.487164,147 525.064493,146.61396 525.006728,146.116621 L525,146 L525,145 C525,144.447715 525.447715,144 526,144 Z M672,140 C672.512836,140 672.935507,140.38604 672.993272,140.883379 L673,141 L673,142 C673,142.552285 672.552285,143 672,143 C671.487164,143 671.064493,142.61396 671.006728,142.116621 L671,142 L671,141 C671,140.447715 671.447715,140 672,140 Z M525.252959,125.684046 C525.459223,125.271517 525.960854,125.104306 526.373383,125.310571 C526.535001,125.391379 526.66605,125.522428 526.746858,125.684046 L526.746858,125.684046 L532.911652,138.013632 C533.117916,138.426161 532.950706,138.927792 532.538177,139.134057 C532.422216,139.192037 532.294349,139.222222 532.164702,139.222222 L532.164702,139.222222 L526.628577,139.222209 C526.826691,139.382516 526.962331,139.616981 526.993272,139.883379 L527,140 L527,141 C527,141.552285 526.552285,142 526,142 C525.487164,142 525.064493,141.61396 525.006728,141.116621 L525,141 L525,140 C525,139.685852 525.144859,139.405537 525.371423,139.222209 L519.835115,139.222222 C519.373894,139.222222 519,138.848328 519,138.387107 C519,138.257459 519.030185,138.129592 519.088165,138.013632 L519.088165,138.013632 Z M672,135 C672.512836,135 672.935507,135.38604 672.993272,135.883379 L673,136 L673,137 C673,137.552285 672.552285,138 672,138 C671.487164,138 671.064493,137.61396 671.006728,137.116621 L671,137 L671,136 C671,135.447715 671.447715,135 672,135 Z M672,130 C672.512836,130 672.935507,130.38604 672.993272,130.883379 L673,131 L673,132 C673,132.552285 672.552285,133 672,133 C671.487164,133 671.064493,132.61396 671.006728,132.116621 L671,132 L671,131 C671,130.447715 671.447715,130 672,130 Z M672,125 C672.512836,125 672.935507,125.38604 672.993272,125.883379 L673,126 L673,127 C673,127.552285 672.552285,128 672,128 C671.487164,128 671.064493,127.61396 671.006728,127.116621 L671,127 L671,126 C671,125.447715 671.447715,125 672,125 Z" fill="#000000" fill-rule="nonzero"></path>
        <g id="Wide-Question-Page-(Text-input)-Copy-2" transform="translate(324.000000, 30.000000)">
            <g id="Page-boundaries">
                <rect id="Rectangle" stroke="#0B0C0C" stroke-width="2" fill="#FFFFFF" x="1" y="1" width="108" height="94"></rect>
                <rect id="Rectangle" fill="#0B0C0C" x="0" y="0" width="110" height="10"></rect>
            </g>
            <g id="Click-Area" transform="translate(7.000000, 54.000000)">
                <use fill="#00823B" fill-rule="evenodd" xlink:href="#path-1"></use>
                <use fill="black" fill-opacity="1" filter="url(#filter-2)" xlink:href="#path-1"></use>
            </g>
            <g id="Text-input-group" transform="translate(7.000000, 34.000000)" fill="#FFFFFF" stroke="#0B0C0C">
                <rect id="Text-Input" x="0.5" y="0.5" width="71" height="9"></rect>
            </g>
            <g id="Heading" transform="translate(7.000000, 15.000000)" fill="#231F20" font-family="Arial-BoldMT, Arial" font-size="10" font-weight="bold" line-spacing="11">
                <text id="Question">
                    <tspan x="0" y="9">Question</tspan>
                </text>
            </g>
        </g>
        <g id="Wide-Question-Page-(Text-input)-Copy-3" transform="translate(30.000000, 30.000000)">
            <g id="Page-boundaries">
                <rect id="Rectangle" stroke="#0B0C0C" stroke-width="2" fill="#FFFFFF" x="1" y="1" width="108" height="94"></rect>
                <rect id="Rectangle" fill="#0B0C0C" x="0" y="0" width="110" height="10"></rect>
            </g>
            <g id="Click-Area" transform="translate(7.000000, 54.000000)">
                <use fill="#00823B" fill-rule="evenodd" xlink:href="#path-3"></use>
                <use fill="black" fill-opacity="1" filter="url(#filter-4)" xlink:href="#path-3"></use>
            </g>
            <g id="Text-input-group" transform="translate(7.000000, 34.000000)" fill="#FFFFFF" stroke="#0B0C0C">
                <rect id="Text-Input" x="0.5" y="0.5" width="71" height="9"></rect>
            </g>
            <g id="Heading" transform="translate(7.000000, 15.000000)" fill="#231F20" font-family="Arial-BoldMT, Arial" font-size="10" font-weight="bold" line-spacing="11">
                <text id="Question">
                    <tspan x="0" y="9">Question</tspan>
                </text>
            </g>
        </g>
        <g id="Arrow-(Forward)-2-Copy-4" transform="translate(434.000000, 78.000000)" fill="#0B0C0C" fill-rule="nonzero">
            <g id="Arrow-(Forward)-2-Copy">
                <path id="Arrow-(Forward)" d="M24.6128931,-6.5 C24.7425407,-6.5 24.8704078,-6.46981468 24.9863681,-6.41183453 L24.9863681,-6.41183453 L37.3159544,-0.247041351 C37.7284835,-0.0407768365 37.8956939,0.460854444 37.6894294,0.873383472 C37.6086205,1.03500118 37.4775721,1.16604956 37.3159544,1.24685841 L37.3159544,1.24685841 L24.9863681,7.41165159 C24.573839,7.6179161 24.0722078,7.45070568 23.8659433,7.03817665 C23.8079631,6.92221634 23.7777778,6.79434927 23.7777778,6.66470171 L23.7777778,6.66470171 L23.777,1.5 L0,1.5 C-0.55228475,1.5 -1,1.05228475 -1,0.5 C-1,-0.0128358391 -0.61395981,-0.435507161 -0.116621125,-0.493272269 L0,-0.5 L23.777,-0.5 L23.7777778,-5.66488464 C23.7777778,-6.09062754 24.0963619,-6.44196113 24.508138,-6.49349327 Z"></path>
            </g>
        </g>
        <g id="Arrow-(Forward)-2-Copy-8" transform="translate(581.000000, 78.000000)" fill="#0B0C0C" fill-rule="nonzero">
            <g id="Arrow-(Forward)-2-Copy">
                <path id="Arrow-(Forward)" d="M24.6128931,-6.5 C24.7425407,-6.5 24.8704078,-6.46981468 24.9863681,-6.41183453 L24.9863681,-6.41183453 L37.3159544,-0.247041351 C37.7284835,-0.0407768365 37.8956939,0.460854444 37.6894294,0.873383472 C37.6086205,1.03500118 37.4775721,1.16604956 37.3159544,1.24685841 L37.3159544,1.24685841 L24.9863681,7.41165159 C24.573839,7.6179161 24.0722078,7.45070568 23.8659433,7.03817665 C23.8079631,6.92221634 23.7777778,6.79434927 23.7777778,6.66470171 L23.7777778,6.66470171 L23.777,1.5 L0,1.5 C-0.55228475,1.5 -1,1.05228475 -1,0.5 C-1,-0.0128358391 -0.61395981,-0.435507161 -0.116621125,-0.493272269 L0,-0.5 L23.777,-0.5 L23.7777778,-5.66488464 C23.7777778,-6.09062754 24.0963619,-6.44196113 24.508138,-6.49349327 Z"></path>
            </g>
        </g>
        <g id="Arrow-(Forward)-2-Copy-7" transform="translate(140.000000, 78.000000)" fill="#0B0C0C" fill-rule="nonzero">
            <g id="Arrow-(Forward)-2-Copy">
                <path id="Arrow-(Forward)" d="M24.6128931,-6.5 C24.7425407,-6.5 24.8704078,-6.46981468 24.9863681,-6.41183453 L24.9863681,-6.41183453 L37.3159544,-0.247041351 C37.7284835,-0.0407768365 37.8956939,0.460854444 37.6894294,0.873383472 C37.6086205,1.03500118 37.4775721,1.16604956 37.3159544,1.24685841 L37.3159544,1.24685841 L24.9863681,7.41165159 C24.573839,7.6179161 24.0722078,7.45070568 23.8659433,7.03817665 C23.8079631,6.92221634 23.7777778,6.79434927 23.7777778,6.66470171 L23.7777778,6.66470171 L23.7775598,1.47517091 C23.7014508,1.45788286 23.6286406,1.43191341 23.5602253,1.39835885 L23.5,1.364 L23.4397747,1.39835885 C23.3402349,1.44717857 23.2313916,1.47994186 23.1166211,1.49327227 L23,1.5 L22,1.5 C21.8422044,1.5 21.692945,1.46345182 21.5602253,1.39835885 L21.5,1.364 L21.4397747,1.39835885 C21.3402349,1.44717857 21.2313916,1.47994186 21.1166211,1.49327227 L21,1.5 L20,1.5 C19.8422044,1.5 19.692945,1.46345182 19.5602253,1.39835885 L19.5,1.364 L19.4397747,1.39835885 C19.3402349,1.44717857 19.2313916,1.47994186 19.1166211,1.49327227 L19,1.5 L18,1.5 C17.8422044,1.5 17.692945,1.46345182 17.5602253,1.39835885 L17.5,1.364 L17.4397747,1.39835885 C17.3402349,1.44717857 17.2313916,1.47994186 17.1166211,1.49327227 L17,1.5 L16,1.5 C15.8422044,1.5 15.692945,1.46345182 15.5602253,1.39835885 L15.5,1.364 L15.4397747,1.39835885 C15.3402349,1.44717857 15.2313916,1.47994186 15.1166211,1.49327227 L15,1.5 L14,1.5 C13.8422044,1.5 13.692945,1.46345182 13.5602253,1.39835885 L13.5,1.364 L13.4397747,1.39835885 C13.3402349,1.44717857 13.2313916,1.47994186 13.1166211,1.49327227 L13,1.5 L12,1.5 C11.8422044,1.5 11.692945,1.46345182 11.5602253,1.39835885 L11.5,1.364 L11.4397747,1.39835885 C11.3402349,1.44717857 11.2313916,1.47994186 11.1166211,1.49327227 L11,1.5 L10,1.5 C9.84220436,1.5 9.692945,1.46345182 9.56022533,1.39835885 L9.5,1.364 L9.43977467,1.39835885 C9.34023492,1.44717857 9.23139159,1.47994186 9.11662113,1.49327227 L9,1.5 L8,1.5 C7.84220436,1.5 7.692945,1.46345182 7.56022533,1.39835885 L7.5,1.364 L7.43977467,1.39835885 C7.34023492,1.44717857 7.23139159,1.47994186 7.11662113,1.49327227 L7,1.5 L6,1.5 C5.84220436,1.5 5.692945,1.46345182 5.56022533,1.39835885 L5.5,1.364 L5.43977467,1.39835885 C5.34023492,1.44717857 5.23139159,1.47994186 5.11662113,1.49327227 L5,1.5 L4,1.5 C3.84220436,1.5 3.692945,1.46345182 3.56022533,1.39835885 L3.5,1.364 L3.43977467,1.39835885 C3.34023492,1.44717857 3.23139159,1.47994186 3.11662113,1.49327227 L3,1.5 L2,1.5 C1.84220436,1.5 1.692945,1.46345182 1.56022533,1.39835885 L1.5,1.364 L1.43977467,1.39835885 C1.34023492,1.44717857 1.23139159,1.47994186 1.11662113,1.49327227 L1,1.5 L0,1.5 C-0.55228475,1.5 -1,1.05228475 -1,0.5 C-1,-0.0128358391 -0.61395981,-0.435507161 -0.116621125,-0.493272269 L0,-0.5 L1,-0.5 C1.15779564,-0.5 1.307055,-0.463451816 1.43977467,-0.398358848 L1.5,-0.364 L1.56022533,-0.398358848 C1.65976508,-0.447178574 1.76860841,-0.479941859 1.88337887,-0.493272269 L2,-0.5 L3,-0.5 C3.15779564,-0.5 3.307055,-0.463451816 3.43977467,-0.398358848 L3.5,-0.364 L3.56022533,-0.398358848 C3.65976508,-0.447178574 3.76860841,-0.479941859 3.88337887,-0.493272269 L4,-0.5 L5,-0.5 C5.15779564,-0.5 5.307055,-0.463451816 5.43977467,-0.398358848 L5.5,-0.364 L5.56022533,-0.398358848 C5.65976508,-0.447178574 5.76860841,-0.479941859 5.88337887,-0.493272269 L6,-0.5 L7,-0.5 C7.15779564,-0.5 7.307055,-0.463451816 7.43977467,-0.398358848 L7.5,-0.364 L7.56022533,-0.398358848 C7.65976508,-0.447178574 7.76860841,-0.479941859 7.88337887,-0.493272269 L8,-0.5 L9,-0.5 C9.15779564,-0.5 9.307055,-0.463451816 9.43977467,-0.398358848 L9.5,-0.364 L9.56022533,-0.398358848 C9.65976508,-0.447178574 9.76860841,-0.479941859 9.88337887,-0.493272269 L10,-0.5 L11,-0.5 C11.1577956,-0.5 11.307055,-0.463451816 11.4397747,-0.398358848 L11.5,-0.364 L11.5602253,-0.398358848 C11.6597651,-0.447178574 11.7686084,-0.479941859 11.8833789,-0.493272269 L12,-0.5 L13,-0.5 C13.1577956,-0.5 13.307055,-0.463451816 13.4397747,-0.398358848 L13.5,-0.364 L13.5602253,-0.398358848 C13.6597651,-0.447178574 13.7686084,-0.479941859 13.8833789,-0.493272269 L14,-0.5 L15,-0.5 C15.1577956,-0.5 15.307055,-0.463451816 15.4397747,-0.398358848 L15.5,-0.364 L15.5602253,-0.398358848 C15.6597651,-0.447178574 15.7686084,-0.479941859 15.8833789,-0.493272269 L16,-0.5 L17,-0.5 C17.1577956,-0.5 17.307055,-0.463451816 17.4397747,-0.398358848 L17.5,-0.364 L17.5602253,-0.398358848 C17.6597651,-0.447178574 17.7686084,-0.479941859 17.8833789,-0.493272269 L18,-0.5 L19,-0.5 C19.1577956,-0.5 19.307055,-0.463451816 19.4397747,-0.398358848 L19.5,-0.364 L19.5602253,-0.398358848 C19.6597651,-0.447178574 19.7686084,-0.479941859 19.8833789,-0.493272269 L20,-0.5 L21,-0.5 C21.1577956,-0.5 21.307055,-0.463451816 21.4397747,-0.398358848 L21.5,-0.364 L21.5602253,-0.398358848 C21.6597651,-0.447178574 21.7686084,-0.479941859 21.8833789,-0.493272269 L22,-0.5 L23,-0.5 C23.1577956,-0.5 23.307055,-0.463451816 23.4397747,-0.398358848 L23.5,-0.364 L23.5602253,-0.398358848 C23.6286406,-0.431913409 23.7014508,-0.457882863 23.7775598,-0.475170915 L23.7777778,-5.66488464 C23.7777778,-6.12610612 24.1516717,-6.5 24.6128931,-6.5 Z"></path>
            </g>
        </g>
        <g id="Arrow-(Forward)-2-Copy-6" transform="translate(287.000000, 78.000000)" fill="#0B0C0C" fill-rule="nonzero">
            <g id="Arrow-(Forward)-2-Copy">
                <path id="Arrow-(Forward)" d="M24.6128931,-6.5 C24.7425407,-6.5 24.8704078,-6.46981468 24.9863681,-6.41183453 L24.9863681,-6.41183453 L37.3159544,-0.247041351 C37.7284835,-0.0407768365 37.8956939,0.460854444 37.6894294,0.873383472 C37.6086205,1.03500118 37.4775721,1.16604956 37.3159544,1.24685841 L37.3159544,1.24685841 L24.9863681,7.41165159 C24.573839,7.6179161 24.0722078,7.45070568 23.8659433,7.03817665 C23.8079631,6.92221634 23.7777778,6.79434927 23.7777778,6.66470171 L23.7777778,6.66470171 L23.777,1.5 L0,1.5 C-0.55228475,1.5 -1,1.05228475 -1,0.5 C-1,-0.0128358391 -0.61395981,-0.435507161 -0.116621125,-0.493272269 L0,-0.5 L23.777,-0.5 L23.7777778,-5.66488464 C23.7777778,-6.09062754 24.0963619,-6.44196113 24.508138,-6.49349327 Z"></path>
            </g>
        </g>
        <g id="Arrow-(Forward)-2-Copy-5" transform="translate(728.000000, 77.000000)" fill="#0B0C0C" fill-rule="nonzero">
            <g id="Arrow-(Forward)-2-Copy">
                <path id="Arrow-(Forward)" d="M81.5758349,-5.93401304 C81.7054806,-5.93470265 81.8335064,-5.90519789 81.9497735,-5.84783536 L81.9497735,-5.84783536 L94.3119764,0.251288632 C94.7255967,0.455355956 94.895473,0.956090736 94.6914057,1.36971106 C94.6114576,1.53175631 94.4811081,1.6634999 94.3199226,1.74516726 L94.3199226,1.74516726 L82.0233016,7.97545521 C81.6118756,8.18391108 81.109362,8.01937123 80.9009061,7.60794517 C80.84231,7.49229491 80.8114449,7.3645902 80.8107553,7.23494447 L80.8107553,7.23494447 L80.783,2.07 L80.0041874,2.07445996 C79.4519104,2.0773976 79.0018201,1.63207012 78.9988824,1.07979318 C78.9961546,0.566964594 79.3799411,0.142245876 79.8769655,0.0818362037 L79.9935492,0.0744882512 L80.772,0.07 L80.7451733,-5.09446746 C80.7429088,-5.52020434 81.0596196,-5.87322753 81.4711158,-5.9269492 Z M0.99466678,0.494695073 C1.54694372,0.491757429 1.99703406,0.937084916 1.99997171,1.48936185 C2.00269952,2.00219044 1.61891301,2.42690916 1.12188862,2.48731883 L1.00530493,2.49466678 L0.00531907369,2.49998585 C-0.546957863,2.5029235 -0.99704821,2.05759601 -0.999985854,1.50531907 C-1.00271367,0.992490489 -0.618927156,0.567771771 -0.121902764,0.507362099 L-0.00531907369,0.500014146 L0.99466678,0.494695073 Z M5.99459605,0.468099704 C6.54687299,0.465162061 6.99696333,0.910489547 6.99990098,1.46276648 C7.00262879,1.97559507 6.61884228,2.40031379 6.12181789,2.46072346 L6.0052342,2.46807141 L5.00524834,2.47339049 C4.4529714,2.47632813 4.00288106,2.03100064 3.99994341,1.47872371 C3.9972156,0.965895121 4.38100211,0.541176402 4.8780265,0.48076673 L4.99461019,0.473418778 L5.99459605,0.468099704 Z M10.9945253,0.441504336 C11.5468023,0.438566693 11.9968926,0.883894179 11.9998302,1.43617112 C12.0025581,1.9489997 11.6187715,2.37371842 11.1217472,2.43412809 L11.0051635,2.44147604 L10.0051776,2.44679512 C9.45290067,2.44973276 9.00281033,2.00440527 8.99987268,1.45212834 C8.99714487,0.939299752 9.38093138,0.514581034 9.87795577,0.454171362 L9.99453946,0.446823409 L10.9945253,0.441504336 Z M15.9944546,0.414908967 C16.5467315,0.411971324 16.9968219,0.85729881 16.9997595,1.40957575 C17.0024873,1.92240433 16.6187008,2.34712305 16.1216764,2.40753272 L16.0050927,2.41488067 L15.0051069,2.42019975 C14.4528299,2.42313739 14.0027396,1.97780991 13.999802,1.42553297 C13.9970741,0.912704384 14.3808606,0.487985665 14.877885,0.427575994 L14.9944687,0.420228041 L15.9944546,0.414908967 Z M20.9943839,0.388313599 C21.5466608,0.385375956 21.9967511,0.830703442 21.9996888,1.38298038 C22.0024166,1.89580896 21.6186301,2.32052768 21.1216057,2.38093735 L21.005022,2.38828531 L20.0050361,2.39360438 C19.4527592,2.39654202 19.0026689,1.95121454 18.9997312,1.3989376 C18.9970034,0.886109016 19.3807899,0.461390297 19.8778143,0.400980625 L19.994398,0.393632673 L20.9943839,0.388313599 Z M25.9943131,0.36171823 C26.5465901,0.358780587 26.9966804,0.804108073 26.999618,1.35638501 C27.0023459,1.86921359 26.6185594,2.29393231 26.121535,2.35434199 L26.0049513,2.36168994 L25.0049654,2.36700901 C24.4526885,2.36994665 24.0025981,1.92461917 23.9996605,1.37234223 C23.9969327,0.859513647 24.3807192,0.434794929 24.8777436,0.374385257 L24.9943273,0.367037304 L25.9943131,0.36171823 Z M30.9942424,0.335122862 C31.5465193,0.332185219 31.9966097,0.777512705 31.9995473,1.32978964 C32.0022751,1.84261823 31.6184886,2.26733694 31.1214642,2.32774662 L31.0048805,2.33509457 L30.0048947,2.34041364 C29.4526177,2.34335129 29.0025274,1.8980238 28.9995898,1.34574686 C28.9968619,0.832918279 29.3806485,0.40819956 29.8776728,0.347789888 L29.9942565,0.340441936 L30.9942424,0.335122862 Z M35.9941717,0.308527494 C36.5464486,0.30558985 36.9965389,0.750917336 36.9994766,1.30319427 C37.0022044,1.81602286 36.6184179,2.24074158 36.1213935,2.30115125 L36.0048098,2.3084992 L35.004824,2.31381827 C34.452547,2.31675592 34.0024567,1.87142843 33.999519,1.31915149 C33.9967912,0.80632291 34.3805777,0.381604192 34.8776021,0.32119452 L34.9941858,0.313846567 L35.9941717,0.308527494 Z M40.9941009,0.281932125 C41.5463779,0.278994482 41.9964682,0.724321968 41.9994059,1.27659891 C42.0021337,1.78942749 41.6183472,2.21414621 41.1213228,2.27455588 L41.0047391,2.28190383 L40.0047532,2.28722291 C39.4524763,2.29016055 39.0023859,1.84483306 38.9994483,1.29255613 C38.9967205,0.779727542 39.380507,0.355008823 39.8775314,0.294599151 L39.9941151,0.287251199 L40.9941009,0.281932125 Z M45.9940302,0.255336757 C46.5463071,0.252399113 46.9963975,0.6977266 46.9993351,1.25000354 C47.0020629,1.76283212 46.6182764,2.18755084 46.121252,2.24796051 L46.0046683,2.25530846 L45.0046825,2.26062754 C44.4524055,2.26356518 44.0023152,1.81823769 43.9993776,1.26596076 C43.9966497,0.753132173 44.3804363,0.328413455 44.8774606,0.268003783 L44.9940443,0.26065583 L45.9940302,0.255336757 Z M50.9939595,0.228741388 C51.5462364,0.225803745 51.9963267,0.671131231 51.9992644,1.22340817 C52.0019922,1.73623675 51.6182057,2.16095547 51.1211813,2.22136514 L51.0045976,2.2287131 L50.0046118,2.23403217 C49.4523348,2.23696981 49.0022445,1.79164233 48.9993068,1.23936539 C48.996579,0.726536805 49.3803655,0.301818086 49.8773899,0.241408414 L49.9939736,0.234060462 L50.9939595,0.228741388 Z M55.9938887,0.20214602 C56.5461657,0.199208376 56.996256,0.644535863 56.9991937,1.1968128 C57.0019215,1.70964138 56.618135,2.1343601 56.1211106,2.19476977 L56.0045269,2.20211773 L55.004541,2.2074368 C54.4522641,2.21037444 54.0021737,1.76504696 53.9992361,1.21277002 C53.9965083,0.699941436 54.3802948,0.275222718 54.8773192,0.214813046 L54.9939029,0.207465093 L55.9938887,0.20214602 Z M60.993818,0.175550651 C61.5460949,0.172613008 61.9961853,0.617940494 61.9991229,1.17021743 C62.0018507,1.68304602 61.6180642,2.10776473 61.1210398,2.16817441 L61.0044561,2.17552236 L60.0044703,2.18084143 C59.4521934,2.18377908 59.002103,1.73845159 58.9991654,1.18617465 C58.9964376,0.673346068 59.3802241,0.248627349 59.8772485,0.188217678 L59.9938321,0.180869725 L60.993818,0.175550651 Z M65.9937473,0.148955283 C66.5460242,0.14601764 66.9961145,0.591345126 66.9990522,1.14362206 C67.00178,1.65645065 66.6179935,2.08116937 66.1209691,2.14157904 L66.0043854,2.14892699 L65.0043996,2.15424606 C64.4521226,2.15718371 64.0020323,1.71185622 63.9990946,1.15957928 C63.9963668,0.6467507 64.3801533,0.222031981 64.8771777,0.161622309 L64.9937614,0.154274357 L65.9937473,0.148955283 Z M70.9936765,0.122359914 C71.5459535,0.119422271 71.9960438,0.564749757 71.9989815,1.11702669 C72.0017093,1.62985528 71.6179228,2.054574 71.1208984,2.11498367 L71.0043147,2.12233162 L70.0043288,2.1276507 C69.4520519,2.13058834 69.0019615,1.68526085 68.9990239,1.13298392 C68.9962961,0.620155331 69.3800826,0.195436613 69.877107,0.135026941 L69.9936907,0.127678988 L70.9936765,0.122359914 Z M75.9936058,0.095764546 C76.5458827,0.0928269027 76.9959731,0.538154389 76.9989107,1.09043133 C77.0016385,1.60325991 76.617852,2.02797863 76.1208276,2.0883883 L76.0042439,2.09573625 L75.0042581,2.10105533 C74.4519812,2.10399297 74.0018908,1.65866548 73.9989532,1.10638855 C73.9962254,0.593559963 74.3800119,0.168841244 74.8770363,0.108431572 L74.9936199,0.10108362 L75.9936058,0.095764546 Z"></path>
            </g>
        </g>
        <g id="Wide-Check-answers-Copy-2" transform="translate(618.000000, 30.000000)">
            <g id="Page-boundaries">
                <rect id="Rectangle" stroke="#0B0C0C" stroke-width="2" fill="#FFFFFF" x="1" y="1" width="108" height="94"></rect>
                <rect id="Rectangle" fill="#0B0C0C" x="0" y="0" width="110" height="10"></rect>
            </g>
            <g id="Button" transform="translate(7.000000, 64.000000)">
                <g id="Click-Area">
                    <use fill="#BFC1C3" fill-rule="evenodd" xlink:href="#path-5"></use>
                    <use fill="black" fill-opacity="1" filter="url(#filter-6)" xlink:href="#path-5"></use>
                </g>
                <g id="Click-Area-Copy">
                    <use fill="#00823B" fill-rule="evenodd" xlink:href="#path-7"></use>
                    <use fill="black" fill-opacity="1" filter="url(#filter-8)" xlink:href="#path-7"></use>
                </g>
            </g>
            <g id="Summary-List" transform="translate(7.000000, 34.000000)">
                <g id="Dividers" transform="translate(0.000000, 4.000000)" fill="#BFC1C3">
                    <rect id="Line-Copy-2" x="0" y="8" width="72" height="1"></rect>
                    <rect id="Line-Copy-3" x="0" y="16" width="72" height="1"></rect>
                    <rect id="Line-Copy" x="0" y="0" width="72" height="1"></rect>
                </g>
                <g id="Change-link" transform="translate(62.000000, 0.000000)" fill="#005EA5">
                    <rect id="Line-Copy-9" x="0" y="0" width="10" height="1"></rect>
                    <rect id="Line-Copy-11" x="0" y="16" width="10" height="1"></rect>
                    <rect id="Line-Copy-10" x="0" y="8" width="10" height="1"></rect>
                </g>
                <g id="Change-link-Copy" transform="translate(47.000000, 0.000000)" fill="#005EA5">
                    <rect id="Line-Copy-9" x="0" y="0" width="10" height="1"></rect>
                    <rect id="Line-Copy-11" x="0" y="16" width="10" height="1"></rect>
                    <rect id="Line-Copy-10" x="0" y="8" width="10" height="1"></rect>
                </g>
                <g id="Answers" fill="#0B0C0C">
                    <rect id="Line-Copy-4" x="0" y="0" width="31" height="1"></rect>
                    <rect id="Line-Copy-5" x="0" y="16" width="31" height="1"></rect>
                    <rect id="Line-Copy-6" x="0" y="8" width="31" height="1"></rect>
                </g>
            </g>
            <g id="Heading" transform="translate(7.000000, 15.000000)" fill="#231F20" font-family="Arial-BoldMT, Arial" font-size="10" font-weight="bold" letter-spacing="-0.100000001" line-spacing="11">
                <text id="Summary-list">
                    <tspan x="0" y="9">Summary list</tspan>
                </text>
            </g>
        </g>
        <g id="Action/State-button" transform="translate(568.500000, 153.000000)">
            <rect id="Rectangle-368" stroke="#0B0C0C" stroke-width="2" fill="#FFFFFF" x="1" y="1" width="60" height="18" rx="9"></rect>
            <text id="Action-/-State-chang" font-family="ArialMT, Arial" font-size="8" font-weight="normal" fill="#0B0C0C">
                <tspan x="16.6007812" y="13">Change</tspan>
            </text>
        </g>
        <g id="Action/State-button" transform="translate(737.000000, 69.000000)">
            <rect id="Rectangle-368" stroke="#0B0C0C" stroke-width="2" fill="#FFFFFF" x="1" y="1" width="60" height="18" rx="9"></rect>
            <text id="Action-/-State-chang" font-family="ArialMT, Arial" font-size="8" font-weight="normal" fill="#0B0C0C">
                <tspan x="14.6007812" y="13">Continue</tspan>
            </text>
        </g>
        <g id="Wide-Question-Page-(Radios)-Copy" transform="translate(177.000000, 30.000000)">
            <g id="Page-boundaries">
                <rect id="Rectangle" stroke="#0B0C0C" stroke-width="2" fill="#FFFFFF" x="1" y="1" width="108" height="94"></rect>
                <rect id="Rectangle" fill="#0B0C0C" x="0" y="0" width="110" height="10"></rect>
            </g>
            <g id="Click-Area" transform="translate(7.000000, 65.000000)">
                <use fill="#00823B" fill-rule="evenodd" xlink:href="#path-9"></use>
                <use fill="black" fill-opacity="1" filter="url(#filter-10)" xlink:href="#path-9"></use>
            </g>
            <g id="Radios" transform="translate(7.000000, 34.000000)">
                <g id="Radio-group-Copy" transform="translate(0.000000, 13.000000)">
                    <rect id="Label" fill="#0B0C0C" x="13" y="5" width="25" height="1"></rect>
                    <circle id="Radio-Unselected" stroke="#0B0C0C" fill="#FFFFFF" cx="5" cy="5" r="4.5"></circle>
                </g>
                <g id="Radio-group">
                    <rect id="Label" fill="#0B0C0C" x="13" y="5" width="25" height="1"></rect>
                    <circle id="Radio-Unselected" stroke="#0B0C0C" fill="#FFFFFF" cx="5" cy="5" r="4.5"></circle>
                </g>
            </g>
            <g id="Heading" transform="translate(7.000000, 15.000000)" fill="#231F20" font-family="Arial-BoldMT, Arial" font-size="10" font-weight="bold" line-spacing="11">
                <text id="Question">
                    <tspan x="0" y="9">Question</tspan>
                </text>
            </g>
        </g>
        <g id="Wide-Question-Page-(Radios)-Copy-2" transform="translate(822.000000, 137.000000)">
            <g id="Page-boundaries">
                <rect id="Rectangle" stroke="#0B0C0C" stroke-width="2" fill="#FFFFFF" x="1" y="1" width="108" height="94"></rect>
                <rect id="Rectangle" fill="#0B0C0C" x="0" y="0" width="110" height="10"></rect>
            </g>
            <g id="Click-Area" transform="translate(7.000000, 65.000000)">
                <use fill="#00823B" fill-rule="evenodd" xlink:href="#path-11"></use>
                <use fill="black" fill-opacity="1" filter="url(#filter-12)" xlink:href="#path-11"></use>
            </g>
            <g id="Radios" transform="translate(7.000000, 34.000000)">
                <g id="Radio-group-Copy" transform="translate(0.000000, 13.000000)">
                    <rect id="Label" fill="#0B0C0C" x="13" y="5" width="25" height="1"></rect>
                    <circle id="Radio-Unselected" stroke="#0B0C0C" fill="#FFFFFF" cx="5" cy="5" r="4.5"></circle>
                </g>
                <g id="Radio-group">
                    <rect id="Label" fill="#0B0C0C" x="13" y="5" width="25" height="1"></rect>
                    <circle id="Radio-Unselected" stroke="#0B0C0C" fill="#FFFFFF" cx="5" cy="5" r="4.5"></circle>
                </g>
            </g>
            <g id="Heading" transform="translate(7.000000, 15.000000)" fill="#231F20" font-family="Arial-BoldMT, Arial" font-size="10" font-weight="bold" line-spacing="11">
                <text id="Confirm">
                    <tspan x="0" y="9">Confirm</tspan>
                </text>
            </g>
        </g>
        <g id="Wide-Check-answers-Copy" transform="translate(471.000000, 30.000000)">
            <g id="Page-boundaries">
                <rect id="Rectangle" stroke="#0B0C0C" stroke-width="2" fill="#FFFFFF" x="1" y="1" width="108" height="94"></rect>
                <rect id="Rectangle" fill="#0B0C0C" x="0" y="0" width="110" height="10"></rect>
            </g>
            <g id="Click-Area" transform="translate(7.000000, 64.000000)">
                <use fill="#00823B" fill-rule="evenodd" xlink:href="#path-13"></use>
                <use fill="black" fill-opacity="1" filter="url(#filter-14)" xlink:href="#path-13"></use>
            </g>
            <g id="Summary-List" transform="translate(7.000000, 34.000000)">
                <g id="Dividers" transform="translate(0.000000, 4.000000)" fill="#BFC1C3">
                    <rect id="Line-Copy-2" x="0" y="8" width="72" height="1"></rect>
                    <rect id="Line-Copy-7" x="0" y="16" width="72" height="1"></rect>
                    <rect id="Line-Copy" x="0" y="0" width="72" height="1"></rect>
                </g>
                <g id="Change-link" transform="translate(62.000000, 0.000000)" fill="#005EA5">
                    <rect id="Line-Copy-9" x="0" y="0" width="10" height="1"></rect>
                    <rect id="Line-Copy-11" x="0" y="16" width="10" height="1"></rect>
                    <rect id="Line-Copy-10" x="0" y="8" width="10" height="1"></rect>
                </g>
                <g id="Answers" fill="#0B0C0C">
                    <rect id="Line-Copy-4" x="0" y="0" width="12" height="1"></rect>
                    <rect id="Line-Copy-13" x="19" y="0" width="33" height="1"></rect>
                    <rect id="Line-Copy-5" x="0" y="16" width="12" height="1"></rect>
                    <rect id="Line-Copy-14" x="19" y="16" width="33" height="1"></rect>
                    <rect id="Line-Copy-6" x="0" y="8" width="12" height="1"></rect>
                    <rect id="Line-Copy-15" x="19" y="8" width="33" height="1"></rect>
                </g>
            </g>
            <g id="Heading" transform="translate(7.000000, 15.000000)" fill="#231F20" font-family="Arial-BoldMT, Arial" font-size="10" font-weight="bold" letter-spacing="-0.100000001" line-spacing="11">
                <text id="Check-answers">
                    <tspan x="0" y="9">Check answer</tspan>
                    <tspan x="66.0558594" y="9">s</tspan>
                </text>
            </g>
        </g>
        <g id="Arrow-(Forward)-2-Copy-9" transform="translate(747.000000, 175.230701) scale(1, -1) translate(-747.000000, -175.230701) translate(672.000000, 165.961403)" fill="#0B0C0C" fill-rule="nonzero">
            <g id="Arrow-(Forward)-2-Copy">
                <path id="Arrow-(Forward)" d="M0,16.5385971 C0.512835839,16.5385971 0.935507161,16.9246373 0.993272269,17.421976 L1,17.5385971 L1,18.5385971 C1,19.0908819 0.55228475,19.5385971 0,19.5385971 C-0.512835839,19.5385971 -0.935507161,19.1525569 -0.993272269,18.6552182 L-1,18.5385971 L-1,17.5385971 C-1,16.9863124 -0.55228475,16.5385971 0,16.5385971 Z M0,11.5385971 C0.512835839,11.5385971 0.935507161,11.9246373 0.993272269,12.421976 L1,12.5385971 L1,13.5385971 C1,14.0908819 0.55228475,14.5385971 0,14.5385971 C-0.512835839,14.5385971 -0.935507161,14.1525569 -0.993272269,13.6552182 L-1,13.5385971 L-1,12.5385971 C-1,11.9863124 -0.55228475,11.5385971 0,11.5385971 Z M0,6.53859711 C0.512835839,6.53859711 0.935507161,6.9246373 0.993272269,7.42197598 L1,7.53859711 L1,8.53859711 C1,9.09088186 0.55228475,9.53859711 0,9.53859711 C-0.512835839,9.53859711 -0.935507161,9.15255692 -0.993272269,8.65521823 L-1,8.53859711 L-1,7.53859711 C-1,6.98631236 -0.55228475,6.53859711 0,6.53859711 Z M137.612893,-7 C137.742541,-7 137.870408,-6.96981468 137.986368,-6.91183453 L137.986368,-6.91183453 L150.315954,-0.747041351 C150.728483,-0.540776837 150.895694,-0.0391455565 150.689429,0.373383472 C150.608621,0.535001178 150.477572,0.666049561 150.315954,0.746858413 L150.315954,0.746858413 L137.986368,6.91165159 C137.573839,7.1179161 137.072208,6.95070568 136.865943,6.53817665 C136.807963,6.42221634 136.777778,6.29434927 136.777778,6.16470171 L136.777778,6.16470171 L136.777,1 L136.461403,1 C135.909118,1 135.461403,0.55228475 135.461403,0 C135.461403,-0.512835839 135.847443,-0.935507161 136.344782,-0.993272269 L136.461403,-1 L136.777,-1 L136.777778,-6.16488464 C136.777778,-6.59062754 137.096362,-6.94196113 137.508138,-6.99349327 Z M0,1.53859711 C0.512835839,1.53859711 0.935507161,1.9246373 0.993272269,2.42197598 L1,2.53859711 L1,3.53859711 C1,4.09088186 0.55228475,4.53859711 0,4.53859711 C-0.512835839,4.53859711 -0.935507161,4.15255692 -0.993272269,3.65521823 L-1,3.53859711 L-1,2.53859711 C-1,1.98631236 -0.55228475,1.53859711 0,1.53859711 Z M2.46140289,-1 C3.01368764,-1 3.46140289,-0.55228475 3.46140289,0 C3.46140289,0.512835839 3.0753627,0.935507161 2.57802402,0.993272269 L2.46140289,1 L1.46140289,1 C0.909118143,1 0.461402893,0.55228475 0.461402893,0 C0.461402893,-0.512835839 0.847443083,-0.935507161 1.34478177,-0.993272269 L1.46140289,-1 L2.46140289,-1 Z M7.46140289,-1 C8.01368764,-1 8.46140289,-0.55228475 8.46140289,0 C8.46140289,0.512835839 8.0753627,0.935507161 7.57802402,0.993272269 L7.46140289,1 L6.46140289,1 C5.90911814,1 5.46140289,0.55228475 5.46140289,0 C5.46140289,-0.512835839 5.84744308,-0.935507161 6.34478177,-0.993272269 L6.46140289,-1 L7.46140289,-1 Z M12.4614029,-1 C13.0136876,-1 13.4614029,-0.55228475 13.4614029,0 C13.4614029,0.512835839 13.0753627,0.935507161 12.578024,0.993272269 L12.4614029,1 L11.4614029,1 C10.9091181,1 10.4614029,0.55228475 10.4614029,0 C10.4614029,-0.512835839 10.8474431,-0.935507161 11.3447818,-0.993272269 L11.4614029,-1 L12.4614029,-1 Z M17.4614029,-1 C18.0136876,-1 18.4614029,-0.55228475 18.4614029,0 C18.4614029,0.512835839 18.0753627,0.935507161 17.578024,0.993272269 L17.4614029,1 L16.4614029,1 C15.9091181,1 15.4614029,0.55228475 15.4614029,0 C15.4614029,-0.512835839 15.8474431,-0.935507161 16.3447818,-0.993272269 L16.4614029,-1 L17.4614029,-1 Z M22.4614029,-1 C23.0136876,-1 23.4614029,-0.55228475 23.4614029,0 C23.4614029,0.512835839 23.0753627,0.935507161 22.578024,0.993272269 L22.4614029,1 L21.4614029,1 C20.9091181,1 20.4614029,0.55228475 20.4614029,0 C20.4614029,-0.512835839 20.8474431,-0.935507161 21.3447818,-0.993272269 L21.4614029,-1 L22.4614029,-1 Z M27.4614029,-1 C28.0136876,-1 28.4614029,-0.55228475 28.4614029,0 C28.4614029,0.512835839 28.0753627,0.935507161 27.578024,0.993272269 L27.4614029,1 L26.4614029,1 C25.9091181,1 25.4614029,0.55228475 25.4614029,0 C25.4614029,-0.512835839 25.8474431,-0.935507161 26.3447818,-0.993272269 L26.4614029,-1 L27.4614029,-1 Z M32.4614029,-1 C33.0136876,-1 33.4614029,-0.55228475 33.4614029,0 C33.4614029,0.512835839 33.0753627,0.935507161 32.578024,0.993272269 L32.4614029,1 L31.4614029,1 C30.9091181,1 30.4614029,0.55228475 30.4614029,0 C30.4614029,-0.512835839 30.8474431,-0.935507161 31.3447818,-0.993272269 L31.4614029,-1 L32.4614029,-1 Z M37.4614029,-1 C38.0136876,-1 38.4614029,-0.55228475 38.4614029,0 C38.4614029,0.512835839 38.0753627,0.935507161 37.578024,0.993272269 L37.4614029,1 L36.4614029,1 C35.9091181,1 35.4614029,0.55228475 35.4614029,0 C35.4614029,-0.512835839 35.8474431,-0.935507161 36.3447818,-0.993272269 L36.4614029,-1 L37.4614029,-1 Z M42.4614029,-1 C43.0136876,-1 43.4614029,-0.55228475 43.4614029,0 C43.4614029,0.512835839 43.0753627,0.935507161 42.578024,0.993272269 L42.4614029,1 L41.4614029,1 C40.9091181,1 40.4614029,0.55228475 40.4614029,0 C40.4614029,-0.512835839 40.8474431,-0.935507161 41.3447818,-0.993272269 L41.4614029,-1 L42.4614029,-1 Z M47.4614029,-1 C48.0136876,-1 48.4614029,-0.55228475 48.4614029,0 C48.4614029,0.512835839 48.0753627,0.935507161 47.578024,0.993272269 L47.4614029,1 L46.4614029,1 C45.9091181,1 45.4614029,0.55228475 45.4614029,0 C45.4614029,-0.512835839 45.8474431,-0.935507161 46.3447818,-0.993272269 L46.4614029,-1 L47.4614029,-1 Z M52.4614029,-1 C53.0136876,-1 53.4614029,-0.55228475 53.4614029,0 C53.4614029,0.512835839 53.0753627,0.935507161 52.578024,0.993272269 L52.4614029,1 L51.4614029,1 C50.9091181,1 50.4614029,0.55228475 50.4614029,0 C50.4614029,-0.512835839 50.8474431,-0.935507161 51.3447818,-0.993272269 L51.4614029,-1 L52.4614029,-1 Z M57.4614029,-1 C58.0136876,-1 58.4614029,-0.55228475 58.4614029,0 C58.4614029,0.512835839 58.0753627,0.935507161 57.578024,0.993272269 L57.4614029,1 L56.4614029,1 C55.9091181,1 55.4614029,0.55228475 55.4614029,0 C55.4614029,-0.512835839 55.8474431,-0.935507161 56.3447818,-0.993272269 L56.4614029,-1 L57.4614029,-1 Z M62.4614029,-1 C63.0136876,-1 63.4614029,-0.55228475 63.4614029,0 C63.4614029,0.512835839 63.0753627,0.935507161 62.578024,0.993272269 L62.4614029,1 L61.4614029,1 C60.9091181,1 60.4614029,0.55228475 60.4614029,0 C60.4614029,-0.512835839 60.8474431,-0.935507161 61.3447818,-0.993272269 L61.4614029,-1 L62.4614029,-1 Z M67.4614029,-1 C68.0136876,-1 68.4614029,-0.55228475 68.4614029,0 C68.4614029,0.512835839 68.0753627,0.935507161 67.578024,0.993272269 L67.4614029,1 L66.4614029,1 C65.9091181,1 65.4614029,0.55228475 65.4614029,0 C65.4614029,-0.512835839 65.8474431,-0.935507161 66.3447818,-0.993272269 L66.4614029,-1 L67.4614029,-1 Z M72.4614029,-1 C73.0136876,-1 73.4614029,-0.55228475 73.4614029,0 C73.4614029,0.512835839 73.0753627,0.935507161 72.578024,0.993272269 L72.4614029,1 L71.4614029,1 C70.9091181,1 70.4614029,0.55228475 70.4614029,0 C70.4614029,-0.512835839 70.8474431,-0.935507161 71.3447818,-0.993272269 L71.4614029,-1 L72.4614029,-1 Z M77.4614029,-1 C78.0136876,-1 78.4614029,-0.55228475 78.4614029,0 C78.4614029,0.512835839 78.0753627,0.935507161 77.578024,0.993272269 L77.4614029,1 L76.4614029,1 C75.9091181,1 75.4614029,0.55228475 75.4614029,0 C75.4614029,-0.512835839 75.8474431,-0.935507161 76.3447818,-0.993272269 L76.4614029,-1 L77.4614029,-1 Z M82.4614029,-1 C83.0136876,-1 83.4614029,-0.55228475 83.4614029,0 C83.4614029,0.512835839 83.0753627,0.935507161 82.578024,0.993272269 L82.4614029,1 L81.4614029,1 C80.9091181,1 80.4614029,0.55228475 80.4614029,0 C80.4614029,-0.512835839 80.8474431,-0.935507161 81.3447818,-0.993272269 L81.4614029,-1 L82.4614029,-1 Z M87.4614029,-1 C88.0136876,-1 88.4614029,-0.55228475 88.4614029,0 C88.4614029,0.512835839 88.0753627,0.935507161 87.578024,0.993272269 L87.4614029,1 L86.4614029,1 C85.9091181,1 85.4614029,0.55228475 85.4614029,0 C85.4614029,-0.512835839 85.8474431,-0.935507161 86.3447818,-0.993272269 L86.4614029,-1 L87.4614029,-1 Z M92.4614029,-1 C93.0136876,-1 93.4614029,-0.55228475 93.4614029,0 C93.4614029,0.512835839 93.0753627,0.935507161 92.578024,0.993272269 L92.4614029,1 L91.4614029,1 C90.9091181,1 90.4614029,0.55228475 90.4614029,0 C90.4614029,-0.512835839 90.8474431,-0.935507161 91.3447818,-0.993272269 L91.4614029,-1 L92.4614029,-1 Z M97.4614029,-1 C98.0136876,-1 98.4614029,-0.55228475 98.4614029,0 C98.4614029,0.512835839 98.0753627,0.935507161 97.578024,0.993272269 L97.4614029,1 L96.4614029,1 C95.9091181,1 95.4614029,0.55228475 95.4614029,0 C95.4614029,-0.512835839 95.8474431,-0.935507161 96.3447818,-0.993272269 L96.4614029,-1 L97.4614029,-1 Z M102.461403,-1 C103.013688,-1 103.461403,-0.55228475 103.461403,0 C103.461403,0.512835839 103.075363,0.935507161 102.578024,0.993272269 L102.461403,1 L101.461403,1 C100.909118,1 100.461403,0.55228475 100.461403,0 C100.461403,-0.512835839 100.847443,-0.935507161 101.344782,-0.993272269 L101.461403,-1 L102.461403,-1 Z M107.461403,-1 C108.013688,-1 108.461403,-0.55228475 108.461403,0 C108.461403,0.512835839 108.075363,0.935507161 107.578024,0.993272269 L107.461403,1 L106.461403,1 C105.909118,1 105.461403,0.55228475 105.461403,0 C105.461403,-0.512835839 105.847443,-0.935507161 106.344782,-0.993272269 L106.461403,-1 L107.461403,-1 Z M112.461403,-1 C113.013688,-1 113.461403,-0.55228475 113.461403,0 C113.461403,0.512835839 113.075363,0.935507161 112.578024,0.993272269 L112.461403,1 L111.461403,1 C110.909118,1 110.461403,0.55228475 110.461403,0 C110.461403,-0.512835839 110.847443,-0.935507161 111.344782,-0.993272269 L111.461403,-1 L112.461403,-1 Z M117.461403,-1 C118.013688,-1 118.461403,-0.55228475 118.461403,0 C118.461403,0.512835839 118.075363,0.935507161 117.578024,0.993272269 L117.461403,1 L116.461403,1 C115.909118,1 115.461403,0.55228475 115.461403,0 C115.461403,-0.512835839 115.847443,-0.935507161 116.344782,-0.993272269 L116.461403,-1 L117.461403,-1 Z M122.461403,-1 C123.013688,-1 123.461403,-0.55228475 123.461403,0 C123.461403,0.512835839 123.075363,0.935507161 122.578024,0.993272269 L122.461403,1 L121.461403,1 C120.909118,1 120.461403,0.55228475 120.461403,0 C120.461403,-0.512835839 120.847443,-0.935507161 121.344782,-0.993272269 L121.461403,-1 L122.461403,-1 Z M127.461403,-1 C128.013688,-1 128.461403,-0.55228475 128.461403,0 C128.461403,0.512835839 128.075363,0.935507161 127.578024,0.993272269 L127.461403,1 L126.461403,1 C125.909118,1 125.461403,0.55228475 125.461403,0 C125.461403,-0.512835839 125.847443,-0.935507161 126.344782,-0.993272269 L126.461403,-1 L127.461403,-1 Z M132.461403,-1 C133.013688,-1 133.461403,-0.55228475 133.461403,0 C133.461403,0.512835839 133.075363,0.935507161 132.578024,0.993272269 L132.461403,1 L131.461403,1 C130.909118,1 130.461403,0.55228475 130.461403,0 C130.461403,-0.512835839 130.847443,-0.935507161 131.344782,-0.993272269 L131.461403,-1 L132.461403,-1 Z"></path>
            </g>
        </g>
        <g id="Action/State-button" transform="translate(716.000000, 175.000000)">
            <rect id="Rectangle-368" stroke="#0B0C0C" stroke-width="2" fill="#FFFFFF" x="1" y="1" width="60" height="18" rx="9"></rect>
            <text id="Action-/-State-chang" font-family="ArialMT, Arial" font-size="8" font-weight="normal" fill="#0B0C0C">
                <tspan x="15.7179687" y="13">Remove</tspan>
            </text>
        </g>
    </g>
</svg>