<?xml version="1.0" encoding="UTF-8"?>
<svg width="522px" height="240px" viewBox="0 0 522 240" version="1.1" xmlns="http://www.w3.org/2000/svg" xmlns:xlink="http://www.w3.org/1999/xlink">
    <title> Single page item - change and remove</title>
    <defs>
        <rect id="path-1" x="0" y="0" width="26" height="10"></rect>
        <filter x="-1.9%" y="-5.0%" width="103.8%" height="110.0%" filterUnits="objectBoundingBox" id="filter-2">
            <feOffset dx="0" dy="-1" in="SourceAlpha" result="shadowOffsetInner1"></feOffset>
            <feComposite in="shadowOffsetInner1" in2="SourceAlpha" operator="arithmetic" k2="-1" k3="1" result="shadowInnerInner1"></feComposite>
            <feColorMatrix values="0 0 0 0 0.566726888   0 0 0 0 0.574046853   0 0 0 0 0.581489895  0 0 0 1 0" type="matrix" in="shadowInnerInner1"></feColorMatrix>
        </filter>
        <rect id="path-3" x="32" y="0" width="26" height="10"></rect>
        <filter x="-1.9%" y="-5.0%" width="103.8%" height="110.0%" filterUnits="objectBoundingBox" id="filter-4">
            <feOffset dx="0" dy="-1" in="SourceAlpha" result="shadowOffsetInner1"></feOffset>
            <feComposite in="shadowOffsetInner1" in2="SourceAlpha" operator="arithmetic" k2="-1" k3="1" result="shadowInnerInner1"></feComposite>
            <feColorMatrix values="0 0 0 0 0   0 0 0 0 0.392156863   0 0 0 0 0.207843137  0 0 0 1 0" type="matrix" in="shadowInnerInner1"></feColorMatrix>
        </filter>
        <rect id="path-5" x="0" y="0" width="26" height="10"></rect>
        <filter x="-1.9%" y="-5.0%" width="103.8%" height="110.0%" filterUnits="objectBoundingBox" id="filter-6">
            <feOffset dx="0" dy="-1" in="SourceAlpha" result="shadowOffsetInner1"></feOffset>
            <feComposite in="shadowOffsetInner1" in2="SourceAlpha" operator="arithmetic" k2="-1" k3="1" result="shadowInnerInner1"></feComposite>
            <feColorMatrix values="0 0 0 0 0   0 0 0 0 0.392156863   0 0 0 0 0.207843137  0 0 0 1 0" type="matrix" in="shadowInnerInner1"></feColorMatrix>
        </filter>
        <rect id="path-7" x="0" y="0" width="26" height="10"></rect>
        <filter x="-1.9%" y="-5.0%" width="103.8%" height="110.0%" filterUnits="objectBoundingBox" id="filter-8">
            <feOffset dx="0" dy="-1" in="SourceAlpha" result="shadowOffsetInner1"></feOffset>
            <feComposite in="shadowOffsetInner1" in2="SourceAlpha" operator="arithmetic" k2="-1" k3="1" result="shadowInnerInner1"></feComposite>
            <feColorMatrix values="0 0 0 0 0   0 0 0 0 0.392156863   0 0 0 0 0.207843137  0 0 0 1 0" type="matrix" in="shadowInnerInner1"></feColorMatrix>
        </filter>
    </defs>
    <g id="-Single-page-item---change-and-remove" stroke="none" stroke-width="1" fill="none" fill-rule="evenodd">
        <rect fill="#FFFFFF" x="0" y="0" width="522" height="240"></rect>
        <g id="Arrow-(Forward)-2-Copy-2" transform="translate(140.000000, 78.000000)" fill="#0B0C0C" fill-rule="nonzero">
            <g id="Arrow-(Forward)-2-Copy">
                <path id="Arrow-(Forward)" d="M24.6128931,-6.5 C24.7425407,-6.5 24.8704078,-6.46981468 24.9863681,-6.41183453 L24.9863681,-6.41183453 L37.3159544,-0.247041351 C37.7284835,-0.0407768365 37.8956939,0.460854444 37.6894294,0.873383472 C37.6086205,1.03500118 37.4775721,1.16604956 37.3159544,1.24685841 L37.3159544,1.24685841 L24.9863681,7.41165159 C24.573839,7.6179161 24.0722078,7.45070568 23.8659433,7.03817665 C23.8079631,6.92221634 23.7777778,6.79434927 23.7777778,6.66470171 L23.7777778,6.66470171 L23.777,1.5 L0,1.5 C-0.55228475,1.5 -1,1.05228475 -1,0.5 C-1,-0.0128358391 -0.61395981,-0.435507161 -0.116621125,-0.493272269 L0,-0.5 L23.777,-0.5 L23.7777778,-5.66488464 C23.7777778,-6.09062754 24.0963619,-6.44196113 24.508138,-6.49349327 Z"></path>
            </g>
        </g>
        <g id="Arrow-(Forward)-2-Copy-3" transform="translate(287.000000, 77.000000)" fill="#0B0C0C" fill-rule="nonzero">
            <g id="Arrow-(Forward)-2-Copy">
                <path id="Arrow-(Forward)" d="M81.5758349,-5.93401304 C81.7054806,-5.93470265 81.8335064,-5.90519789 81.9497735,-5.84783536 L81.9497735,-5.84783536 L94.3119764,0.251288632 C94.7255967,0.455355956 94.895473,0.956090736 94.6914057,1.36971106 C94.6114576,1.53175631 94.4811081,1.6634999 94.3199226,1.74516726 L94.3199226,1.74516726 L82.0233016,7.97545521 C81.6118756,8.18391108 81.109362,8.01937123 80.9009061,7.60794517 C80.84231,7.49229491 80.8114449,7.3645902 80.8107553,7.23494447 L80.8107553,7.23494447 L80.783,2.07 L80.0041874,2.07445996 C79.4519104,2.0773976 79.0018201,1.63207012 78.9988824,1.07979318 C78.9961546,0.566964594 79.3799411,0.142245876 79.8769655,0.0818362037 L79.9935492,0.0744882512 L80.772,0.07 L80.7451733,-5.09446746 C80.7429088,-5.52020434 81.0596196,-5.87322753 81.4711158,-5.9269492 Z M0.99466678,0.494695073 C1.54694372,0.491757429 1.99703406,0.937084916 1.99997171,1.48936185 C2.00269952,2.00219044 1.61891301,2.42690916 1.12188862,2.48731883 L1.00530493,2.49466678 L0.00531907369,2.49998585 C-0.546957863,2.5029235 -0.99704821,2.05759601 -0.999985854,1.50531907 C-1.00271367,0.992490489 -0.618927156,0.567771771 -0.121902764,0.507362099 L-0.00531907369,0.500014146 L0.99466678,0.494695073 Z M5.99459605,0.468099704 C6.54687299,0.465162061 6.99696333,0.910489547 6.99990098,1.46276648 C7.00262879,1.97559507 6.61884228,2.40031379 6.12181789,2.46072346 L6.0052342,2.46807141 L5.00524834,2.47339049 C4.4529714,2.47632813 4.00288106,2.03100064 3.99994341,1.47872371 C3.9972156,0.965895121 4.38100211,0.541176402 4.8780265,0.48076673 L4.99461019,0.473418778 L5.99459605,0.468099704 Z M10.9945253,0.441504336 C11.5468023,0.438566693 11.9968926,0.883894179 11.9998302,1.43617112 C12.0025581,1.9489997 11.6187715,2.37371842 11.1217472,2.43412809 L11.0051635,2.44147604 L10.0051776,2.44679512 C9.45290067,2.44973276 9.00281033,2.00440527 8.99987268,1.45212834 C8.99714487,0.939299752 9.38093138,0.514581034 9.87795577,0.454171362 L9.99453946,0.446823409 L10.9945253,0.441504336 Z M15.9944546,0.414908967 C16.5467315,0.411971324 16.9968219,0.85729881 16.9997595,1.40957575 C17.0024873,1.92240433 16.6187008,2.34712305 16.1216764,2.40753272 L16.0050927,2.41488067 L15.0051069,2.42019975 C14.4528299,2.42313739 14.0027396,1.97780991 13.999802,1.42553297 C13.9970741,0.912704384 14.3808606,0.487985665 14.877885,0.427575994 L14.9944687,0.420228041 L15.9944546,0.414908967 Z M20.9943839,0.388313599 C21.5466608,0.385375956 21.9967511,0.830703442 21.9996888,1.38298038 C22.0024166,1.89580896 21.6186301,2.32052768 21.1216057,2.38093735 L21.005022,2.38828531 L20.0050361,2.39360438 C19.4527592,2.39654202 19.0026689,1.95121454 18.9997312,1.3989376 C18.9970034,0.886109016 19.3807899,0.461390297 19.8778143,0.400980625 L19.994398,0.393632673 L20.9943839,0.388313599 Z M25.9943131,0.36171823 C26.5465901,0.358780587 26.9966804,0.804108073 26.999618,1.35638501 C27.0023459,1.86921359 26.6185594,2.29393231 26.121535,2.35434199 L26.0049513,2.36168994 L25.0049654,2.36700901 C24.4526885,2.36994665 24.0025981,1.92461917 23.9996605,1.37234223 C23.9969327,0.859513647 24.3807192,0.434794929 24.8777436,0.374385257 L24.9943273,0.367037304 L25.9943131,0.36171823 Z M30.9942424,0.335122862 C31.5465193,0.332185219 31.9966097,0.777512705 31.9995473,1.32978964 C32.0022751,1.84261823 31.6184886,2.26733694 31.1214642,2.32774662 L31.0048805,2.33509457 L30.0048947,2.34041364 C29.4526177,2.34335129 29.0025274,1.8980238 28.9995898,1.34574686 C28.9968619,0.832918279 29.3806485,0.40819956 29.8776728,0.347789888 L29.9942565,0.340441936 L30.9942424,0.335122862 Z M35.9941717,0.308527494 C36.5464486,0.30558985 36.9965389,0.750917336 36.9994766,1.30319427 C37.0022044,1.81602286 36.6184179,2.24074158 36.1213935,2.30115125 L36.0048098,2.3084992 L35.004824,2.31381827 C34.452547,2.31675592 34.0024567,1.87142843 33.999519,1.31915149 C33.9967912,0.80632291 34.3805777,0.381604192 34.8776021,0.32119452 L34.9941858,0.313846567 L35.9941717,0.308527494 Z M40.9941009,0.281932125 C41.5463779,0.278994482 41.9964682,0.724321968 41.9994059,1.27659891 C42.0021337,1.78942749 41.6183472,2.21414621 41.1213228,2.27455588 L41.0047391,2.28190383 L40.0047532,2.28722291 C39.4524763,2.29016055 39.0023859,1.84483306 38.9994483,1.29255613 C38.9967205,0.779727542 39.380507,0.355008823 39.8775314,0.294599151 L39.9941151,0.287251199 L40.9941009,0.281932125 Z M45.9940302,0.255336757 C46.5463071,0.252399113 46.9963975,0.6977266 46.9993351,1.25000354 C47.0020629,1.76283212 46.6182764,2.18755084 46.121252,2.24796051 L46.0046683,2.25530846 L45.0046825,2.26062754 C44.4524055,2.26356518 44.0023152,1.81823769 43.9993776,1.26596076 C43.9966497,0.753132173 44.3804363,0.328413455 44.8774606,0.268003783 L44.9940443,0.26065583 L45.9940302,0.255336757 Z M50.9939595,0.228741388 C51.5462364,0.225803745 51.9963267,0.671131231 51.9992644,1.22340817 C52.0019922,1.73623675 51.6182057,2.16095547 51.1211813,2.22136514 L51.0045976,2.2287131 L50.0046118,2.23403217 C49.4523348,2.23696981 49.0022445,1.79164233 48.9993068,1.23936539 C48.996579,0.726536805 49.3803655,0.301818086 49.8773899,0.241408414 L49.9939736,0.234060462 L50.9939595,0.228741388 Z M55.9938887,0.20214602 C56.5461657,0.199208376 56.996256,0.644535863 56.9991937,1.1968128 C57.0019215,1.70964138 56.618135,2.1343601 56.1211106,2.19476977 L56.0045269,2.20211773 L55.004541,2.2074368 C54.4522641,2.21037444 54.0021737,1.76504696 53.9992361,1.21277002 C53.9965083,0.699941436 54.3802948,0.275222718 54.8773192,0.214813046 L54.9939029,0.207465093 L55.9938887,0.20214602 Z M60.993818,0.175550651 C61.5460949,0.172613008 61.9961853,0.617940494 61.9991229,1.17021743 C62.0018507,1.68304602 61.6180642,2.10776473 61.1210398,2.16817441 L61.0044561,2.17552236 L60.0044703,2.18084143 C59.4521934,2.18377908 59.002103,1.73845159 58.9991654,1.18617465 C58.9964376,0.673346068 59.3802241,0.248627349 59.8772485,0.188217678 L59.9938321,0.180869725 L60.993818,0.175550651 Z M65.9937473,0.148955283 C66.5460242,0.14601764 66.9961145,0.591345126 66.9990522,1.14362206 C67.00178,1.65645065 66.6179935,2.08116937 66.1209691,2.14157904 L66.0043854,2.14892699 L65.0043996,2.15424606 C64.4521226,2.15718371 64.0020323,1.71185622 63.9990946,1.15957928 C63.9963668,0.6467507 64.3801533,0.222031981 64.8771777,0.161622309 L64.9937614,0.154274357 L65.9937473,0.148955283 Z M70.9936765,0.122359914 C71.5459535,0.119422271 71.9960438,0.564749757 71.9989815,1.11702669 C72.0017093,1.62985528 71.6179228,2.054574 71.1208984,2.11498367 L71.0043147,2.12233162 L70.0043288,2.1276507 C69.4520519,2.13058834 69.0019615,1.68526085 68.9990239,1.13298392 C68.9962961,0.620155331 69.3800826,0.195436613 69.877107,0.135026941 L69.9936907,0.127678988 L70.9936765,0.122359914 Z M75.9936058,0.095764546 C76.5458827,0.0928269027 76.9959731,0.538154389 76.9989107,1.09043133 C77.0016385,1.60325991 76.617852,2.02797863 76.1208276,2.0883883 L76.0042439,2.09573625 L75.0042581,2.10105533 C74.4519812,2.10399297 74.0018908,1.65866548 73.9989532,1.10638855 C73.9962254,0.593559963 74.3800119,0.168841244 74.8770363,0.108431572 L74.9936199,0.10108362 L75.9936058,0.095764546 Z"></path>
            </g>
        </g>
        <g id="Wide-Check-answers-Copy" transform="translate(177.000000, 30.000000)">
            <g id="Page-boundaries">
                <rect id="Rectangle" stroke="#0B0C0C" stroke-width="2" fill="#FFFFFF" x="1" y="1" width="108" height="94"></rect>
                <rect id="Rectangle" fill="#0B0C0C" x="0" y="0" width="110" height="10"></rect>
            </g>
            <g id="Button" transform="translate(7.000000, 64.000000)">
                <g id="Click-Area">
                    <use fill="#BFC1C3" fill-rule="evenodd" xlink:href="#path-1"></use>
                    <use fill="black" fill-opacity="1" filter="url(#filter-2)" xlink:href="#path-1"></use>
                </g>
                <g id="Click-Area-Copy">
                    <use fill="#00823B" fill-rule="evenodd" xlink:href="#path-3"></use>
                    <use fill="black" fill-opacity="1" filter="url(#filter-4)" xlink:href="#path-3"></use>
                </g>
            </g>
            <g id="Summary-List" transform="translate(7.000000, 34.000000)">
                <g id="Dividers" transform="translate(0.000000, 4.000000)" fill="#BFC1C3">
                    <rect id="Line-Copy-2" x="0" y="8" width="72" height="1"></rect>
                    <rect id="Line-Copy-3" x="0" y="16" width="72" height="1"></rect>
                    <rect id="Line-Copy" x="0" y="0" width="72" height="1"></rect>
                </g>
                <g id="Change-link" transform="translate(62.000000, 0.000000)" fill="#005EA5">
                    <rect id="Line-Copy-9" x="0" y="0" width="10" height="1"></rect>
                    <rect id="Line-Copy-11" x="0" y="16" width="10" height="1"></rect>
                    <rect id="Line-Copy-10" x="0" y="8" width="10" height="1"></rect>
                </g>
                <g id="Change-link-Copy" transform="translate(47.000000, 0.000000)" fill="#005EA5">
                    <rect id="Line-Copy-9" x="0" y="0" width="10" height="1"></rect>
                    <rect id="Line-Copy-11" x="0" y="16" width="10" height="1"></rect>
                    <rect id="Line-Copy-10" x="0" y="8" width="10" height="1"></rect>
                </g>
                <g id="Answers" fill="#0B0C0C">
                    <rect id="Line-Copy-4" x="0" y="0" width="31" height="1"></rect>
                    <rect id="Line-Copy-5" x="0" y="16" width="31" height="1"></rect>
                    <rect id="Line-Copy-6" x="0" y="8" width="31" height="1"></rect>
                </g>
            </g>
            <g id="Heading" transform="translate(7.000000, 15.000000)" fill="#231F20" font-family="Arial-BoldMT, Arial" font-size="10" font-weight="bold" letter-spacing="-0.100000001" line-spacing="11">
                <text id="Summary-list">
                    <tspan x="0" y="9">Summary list</tspan>
                </text>
            </g>
        </g>
        <g id="Action/State-button" transform="translate(296.000000, 69.000000)">
            <rect id="Rectangle-368" stroke="#0B0C0C" stroke-width="2" fill="#FFFFFF" x="1" y="1" width="60" height="18" rx="9"></rect>
            <text id="Action-/-State-chang" font-family="ArialMT, Arial" font-size="8" font-weight="normal" fill="#0B0C0C">
                <tspan x="14.6007812" y="13">Continue</tspan>
            </text>
        </g>
        <g id="Wide-Question-Page-(Radios)-Copy-3" transform="translate(381.000000, 107.000000)">
            <g id="Page-boundaries">
                <rect id="Rectangle" stroke="#0B0C0C" stroke-width="2" fill="#FFFFFF" x="1" y="1" width="108" height="94"></rect>
                <rect id="Rectangle" fill="#0B0C0C" x="0" y="0" width="110" height="10"></rect>
            </g>
            <g id="Click-Area" transform="translate(7.000000, 65.000000)">
                <use fill="#00823B" fill-rule="evenodd" xlink:href="#path-5"></use>
                <use fill="black" fill-opacity="1" filter="url(#filter-6)" xlink:href="#path-5"></use>
            </g>
            <g id="Radios" transform="translate(7.000000, 34.000000)">
                <g id="Radio-group-Copy" transform="translate(0.000000, 13.000000)">
                    <rect id="Label" fill="#0B0C0C" x="13" y="5" width="25" height="1"></rect>
                    <circle id="Radio-Unselected" stroke="#0B0C0C" fill="#FFFFFF" cx="5" cy="5" r="4.5"></circle>
                </g>
                <g id="Radio-group">
                    <rect id="Label" fill="#0B0C0C" x="13" y="5" width="25" height="1"></rect>
                    <circle id="Radio-Unselected" stroke="#0B0C0C" fill="#FFFFFF" cx="5" cy="5" r="4.5"></circle>
                </g>
            </g>
            <g id="Heading" transform="translate(7.000000, 15.000000)" fill="#231F20" font-family="Arial-BoldMT, Arial" font-size="10" font-weight="bold" line-spacing="11">
                <text id="Confirm">
                    <tspan x="0" y="9">Confirm</tspan>
                </text>
            </g>
        </g>
        <g id="Arrow-(Forward)-2-Copy-10" transform="translate(305.000000, 154.000000) scale(1, -1) translate(-305.000000, -154.000000) translate(229.000000, 153.000000)" fill="#0B0C0C" fill-rule="nonzero">
            <g id="Arrow-(Forward)-2-Copy">
                <path id="Arrow-(Forward)" d="M139.612893,-6 C139.742541,-6 139.870408,-5.96981468 139.986368,-5.91183453 L139.986368,-5.91183453 L152.315954,0.252958649 C152.728483,0.459223163 152.895694,0.960854444 152.689429,1.37338347 C152.608621,1.53500118 152.477572,1.66604956 152.315954,1.74685841 L152.315954,1.74685841 L139.986368,7.91165159 C139.573839,8.1179161 139.072208,7.95070568 138.865943,7.53817665 C138.807963,7.42221634 138.777778,7.29434927 138.777778,7.16470171 L138.777778,7.16470171 L138.777778,-5.16488464 C138.777778,-5.62610612 139.151672,-6 139.612893,-6 Z M1,0 C1.55228475,0 2,0.44771525 2,1 C2,1.51283584 1.61395981,1.93550716 1.11662113,1.99327227 L1,2 L0,2 C-0.55228475,2 -1,1.55228475 -1,1 C-1,0.487164161 -0.61395981,0.0644928393 -0.116621125,0.00672773133 L0,0 L1,0 Z M6,0 C6.55228475,0 7,0.44771525 7,1 C7,1.51283584 6.61395981,1.93550716 6.11662113,1.99327227 L6,2 L5,2 C4.44771525,2 4,1.55228475 4,1 C4,0.487164161 4.38604019,0.0644928393 4.88337887,0.00672773133 L5,0 L6,0 Z M11,0 C11.5522847,0 12,0.44771525 12,1 C12,1.51283584 11.6139598,1.93550716 11.1166211,1.99327227 L11,2 L10,2 C9.44771525,2 9,1.55228475 9,1 C9,0.487164161 9.38604019,0.0644928393 9.88337887,0.00672773133 L10,0 L11,0 Z M16,0 C16.5522847,0 17,0.44771525 17,1 C17,1.51283584 16.6139598,1.93550716 16.1166211,1.99327227 L16,2 L15,2 C14.4477153,2 14,1.55228475 14,1 C14,0.487164161 14.3860402,0.0644928393 14.8833789,0.00672773133 L15,0 L16,0 Z M21,0 C21.5522847,0 22,0.44771525 22,1 C22,1.51283584 21.6139598,1.93550716 21.1166211,1.99327227 L21,2 L20,2 C19.4477153,2 19,1.55228475 19,1 C19,0.487164161 19.3860402,0.0644928393 19.8833789,0.00672773133 L20,0 L21,0 Z M26,0 C26.5522847,0 27,0.44771525 27,1 C27,1.51283584 26.6139598,1.93550716 26.1166211,1.99327227 L26,2 L25,2 C24.4477153,2 24,1.55228475 24,1 C24,0.487164161 24.3860402,0.0644928393 24.8833789,0.00672773133 L25,0 L26,0 Z M31,0 C31.5522847,0 32,0.44771525 32,1 C32,1.51283584 31.6139598,1.93550716 31.1166211,1.99327227 L31,2 L30,2 C29.4477153,2 29,1.55228475 29,1 C29,0.487164161 29.3860402,0.0644928393 29.8833789,0.00672773133 L30,0 L31,0 Z M36,0 C36.5522847,0 37,0.44771525 37,1 C37,1.51283584 36.6139598,1.93550716 36.1166211,1.99327227 L36,2 L35,2 C34.4477153,2 34,1.55228475 34,1 C34,0.487164161 34.3860402,0.0644928393 34.8833789,0.00672773133 L35,0 L36,0 Z M41,0 C41.5522847,0 42,0.44771525 42,1 C42,1.51283584 41.6139598,1.93550716 41.1166211,1.99327227 L41,2 L40,2 C39.4477153,2 39,1.55228475 39,1 C39,0.487164161 39.3860402,0.0644928393 39.8833789,0.00672773133 L40,0 L41,0 Z M46,0 C46.5522847,0 47,0.44771525 47,1 C47,1.51283584 46.6139598,1.93550716 46.1166211,1.99327227 L46,2 L45,2 C44.4477153,2 44,1.55228475 44,1 C44,0.487164161 44.3860402,0.0644928393 44.8833789,0.00672773133 L45,0 L46,0 Z M51,0 C51.5522847,0 52,0.44771525 52,1 C52,1.51283584 51.6139598,1.93550716 51.1166211,1.99327227 L51,2 L50,2 C49.4477153,2 49,1.55228475 49,1 C49,0.487164161 49.3860402,0.0644928393 49.8833789,0.00672773133 L50,0 L51,0 Z M56,0 C56.5522847,0 57,0.44771525 57,1 C57,1.51283584 56.6139598,1.93550716 56.1166211,1.99327227 L56,2 L55,2 C54.4477153,2 54,1.55228475 54,1 C54,0.487164161 54.3860402,0.0644928393 54.8833789,0.00672773133 L55,0 L56,0 Z M61,0 C61.5522847,0 62,0.44771525 62,1 C62,1.51283584 61.6139598,1.93550716 61.1166211,1.99327227 L61,2 L60,2 C59.4477153,2 59,1.55228475 59,1 C59,0.487164161 59.3860402,0.0644928393 59.8833789,0.00672773133 L60,0 L61,0 Z M66,0 C66.5522847,0 67,0.44771525 67,1 C67,1.51283584 66.6139598,1.93550716 66.1166211,1.99327227 L66,2 L65,2 C64.4477153,2 64,1.55228475 64,1 C64,0.487164161 64.3860402,0.0644928393 64.8833789,0.00672773133 L65,0 L66,0 Z M71,0 C71.5522847,0 72,0.44771525 72,1 C72,1.51283584 71.6139598,1.93550716 71.1166211,1.99327227 L71,2 L70,2 C69.4477153,2 69,1.55228475 69,1 C69,0.487164161 69.3860402,0.0644928393 69.8833789,0.00672773133 L70,0 L71,0 Z M76,0 C76.5522847,0 77,0.44771525 77,1 C77,1.51283584 76.6139598,1.93550716 76.1166211,1.99327227 L76,2 L75,2 C74.4477153,2 74,1.55228475 74,1 C74,0.487164161 74.3860402,0.0644928393 74.8833789,0.00672773133 L75,0 L76,0 Z M81,0 C81.5522847,0 82,0.44771525 82,1 C82,1.51283584 81.6139598,1.93550716 81.1166211,1.99327227 L81,2 L80,2 C79.4477153,2 79,1.55228475 79,1 C79,0.487164161 79.3860402,0.0644928393 79.8833789,0.00672773133 L80,0 L81,0 Z M86,0 C86.5522847,0 87,0.44771525 87,1 C87,1.51283584 86.6139598,1.93550716 86.1166211,1.99327227 L86,2 L85,2 C84.4477153,2 84,1.55228475 84,1 C84,0.487164161 84.3860402,0.0644928393 84.8833789,0.00672773133 L85,0 L86,0 Z M91,0 C91.5522847,0 92,0.44771525 92,1 C92,1.51283584 91.6139598,1.93550716 91.1166211,1.99327227 L91,2 L90,2 C89.4477153,2 89,1.55228475 89,1 C89,0.487164161 89.3860402,0.0644928393 89.8833789,0.00672773133 L90,0 L91,0 Z M96,0 C96.5522847,0 97,0.44771525 97,1 C97,1.51283584 96.6139598,1.93550716 96.1166211,1.99327227 L96,2 L95,2 C94.4477153,2 94,1.55228475 94,1 C94,0.487164161 94.3860402,0.0644928393 94.8833789,0.00672773133 L95,0 L96,0 Z M101,0 C101.552285,0 102,0.44771525 102,1 C102,1.51283584 101.61396,1.93550716 101.116621,1.99327227 L101,2 L100,2 C99.4477153,2 99,1.55228475 99,1 C99,0.487164161 99.3860402,0.0644928393 99.8833789,0.00672773133 L100,0 L101,0 Z M106,0 C106.552285,0 107,0.44771525 107,1 C107,1.51283584 106.61396,1.93550716 106.116621,1.99327227 L106,2 L105,2 C104.447715,2 104,1.55228475 104,1 C104,0.487164161 104.38604,0.0644928393 104.883379,0.00672773133 L105,0 L106,0 Z M111,0 C111.552285,0 112,0.44771525 112,1 C112,1.51283584 111.61396,1.93550716 111.116621,1.99327227 L111,2 L110,2 C109.447715,2 109,1.55228475 109,1 C109,0.487164161 109.38604,0.0644928393 109.883379,0.00672773133 L110,0 L111,0 Z M116,0 C116.552285,0 117,0.44771525 117,1 C117,1.51283584 116.61396,1.93550716 116.116621,1.99327227 L116,2 L115,2 C114.447715,2 114,1.55228475 114,1 C114,0.487164161 114.38604,0.0644928393 114.883379,0.00672773133 L115,0 L116,0 Z M121,0 C121.552285,0 122,0.44771525 122,1 C122,1.51283584 121.61396,1.93550716 121.116621,1.99327227 L121,2 L120,2 C119.447715,2 119,1.55228475 119,1 C119,0.487164161 119.38604,0.0644928393 119.883379,0.00672773133 L120,0 L121,0 Z M126,0 C126.552285,0 127,0.44771525 127,1 C127,1.51283584 126.61396,1.93550716 126.116621,1.99327227 L126,2 L125,2 C124.447715,2 124,1.55228475 124,1 C124,0.487164161 124.38604,0.0644928393 124.883379,0.00672773133 L125,0 L126,0 Z M131,0 C131.552285,0 132,0.44771525 132,1 C132,1.51283584 131.61396,1.93550716 131.116621,1.99327227 L131,2 L130,2 C129.447715,2 129,1.55228475 129,1 C129,0.487164161 129.38604,0.0644928393 129.883379,0.00672773133 L130,0 L131,0 Z M136,0 C136.552285,0 137,0.44771525 137,1 C137,1.51283584 136.61396,1.93550716 136.116621,1.99327227 L136,2 L135,2 C134.447715,2 134,1.55228475 134,1 C134,0.487164161 134.38604,0.0644928393 134.883379,0.00672773133 L135,0 L136,0 Z"></path>
            </g>
        </g>
        <g id="Action/State-button" transform="translate(274.000000, 145.000000)">
            <rect id="Rectangle-368" stroke="#0B0C0C" stroke-width="2" fill="#FFFFFF" x="1" y="1" width="60" height="18" rx="9"></rect>
            <text id="Action-/-State-chang" font-family="ArialMT, Arial" font-size="8" font-weight="normal" fill="#0B0C0C">
                <tspan x="15.7179687" y="13">Remove</tspan>
            </text>
        </g>
        <g id="Wide-Question-Page-(Text-input)-Copy-4" transform="translate(30.000000, 30.000000)">
            <g id="Page-boundaries">
                <rect id="Rectangle" stroke="#0B0C0C" stroke-width="2" fill="#FFFFFF" x="1" y="1" width="108" height="94"></rect>
                <rect id="Rectangle" fill="#0B0C0C" x="0" y="0" width="110" height="10"></rect>
            </g>
            <g id="Click-Area" transform="translate(7.000000, 54.000000)">
                <use fill="#00823B" fill-rule="evenodd" xlink:href="#path-7"></use>
                <use fill="black" fill-opacity="1" filter="url(#filter-8)" xlink:href="#path-7"></use>
            </g>
            <g id="Text-input-group" transform="translate(7.000000, 34.000000)" fill="#FFFFFF" stroke="#0B0C0C">
                <rect id="Text-Input" x="0.5" y="0.5" width="71" height="9"></rect>
            </g>
            <g id="Heading" transform="translate(7.000000, 15.000000)" fill="#231F20" font-family="Arial-BoldMT, Arial" font-size="10" font-weight="bold" line-spacing="11">
                <text id="Question">
                    <tspan x="0" y="9">Question</tspan>
                </text>
            </g>
        </g>
        <path id="Line-2-Copy" d="M166,182 C166.552285,182 167,182.447715 167,183 C167,183.512836 166.61396,183.935507 166.116621,183.993272 L166,184 L165,184 C164.447715,184 164,183.552285 164,183 C164,182.487164 164.38604,182.064493 164.883379,182.006728 L165,182 L166,182 Z M161,182 C161.552285,182 162,182.447715 162,183 C162,183.512836 161.61396,183.935507 161.116621,183.993272 L161,184 L160,184 C159.447715,184 159,183.552285 159,183 C159,182.487164 159.38604,182.064493 159.883379,182.006728 L160,182 L161,182 Z M85,181 C85.5128358,181 85.9355072,181.38604 85.9932723,181.883379 L86,182 L86.1166211,182.006728 C86.575703,182.060049 86.9399506,182.424297 86.9932723,182.883379 L87,183 C87,183.512836 86.6139598,183.935507 86.1166211,183.993272 L86,184 L85,184 C84.4871642,184 84.0644928,183.61396 84.0067277,183.116621 L84,183 L84,182 C84,181.447715 84.4477153,181 85,181 Z M91,182 C91.5522847,182 92,182.447715 92,183 C92,183.512836 91.6139598,183.935507 91.1166211,183.993272 L91,184 L90,184 C89.4477153,184 89,183.552285 89,183 C89,182.487164 89.3860402,182.064493 89.8833789,182.006728 L90,182 L91,182 Z M96,182 C96.5522847,182 97,182.447715 97,183 C97,183.512836 96.6139598,183.935507 96.1166211,183.993272 L96,184 L95,184 C94.4477153,184 94,183.552285 94,183 C94,182.487164 94.3860402,182.064493 94.8833789,182.006728 L95,182 L96,182 Z M101,182 C101.552285,182 102,182.447715 102,183 C102,183.512836 101.61396,183.935507 101.116621,183.993272 L101,184 L100,184 C99.4477153,184 99,183.552285 99,183 C99,182.487164 99.3860402,182.064493 99.8833789,182.006728 L100,182 L101,182 Z M106,182 C106.552285,182 107,182.447715 107,183 C107,183.512836 106.61396,183.935507 106.116621,183.993272 L106,184 L105,184 C104.447715,184 104,183.552285 104,183 C104,182.487164 104.38604,182.064493 104.883379,182.006728 L105,182 L106,182 Z M111,182 C111.552285,182 112,182.447715 112,183 C112,183.512836 111.61396,183.935507 111.116621,183.993272 L111,184 L110,184 C109.447715,184 109,183.552285 109,183 C109,182.487164 109.38604,182.064493 109.883379,182.006728 L110,182 L111,182 Z M116,182 C116.552285,182 117,182.447715 117,183 C117,183.512836 116.61396,183.935507 116.116621,183.993272 L116,184 L115,184 C114.447715,184 114,183.552285 114,183 C114,182.487164 114.38604,182.064493 114.883379,182.006728 L115,182 L116,182 Z M121,182 C121.552285,182 122,182.447715 122,183 C122,183.512836 121.61396,183.935507 121.116621,183.993272 L121,184 L120,184 C119.447715,184 119,183.552285 119,183 C119,182.487164 119.38604,182.064493 119.883379,182.006728 L120,182 L121,182 Z M126,182 C126.552285,182 127,182.447715 127,183 C127,183.512836 126.61396,183.935507 126.116621,183.993272 L126,184 L125,184 C124.447715,184 124,183.552285 124,183 C124,182.487164 124.38604,182.064493 124.883379,182.006728 L125,182 L126,182 Z M131,182 C131.552285,182 132,182.447715 132,183 C132,183.512836 131.61396,183.935507 131.116621,183.993272 L131,184 L130,184 C129.447715,184 129,183.552285 129,183 C129,182.487164 129.38604,182.064493 129.883379,182.006728 L130,182 L131,182 Z M136,182 C136.552285,182 137,182.447715 137,183 C137,183.512836 136.61396,183.935507 136.116621,183.993272 L136,184 L135,184 C134.447715,184 134,183.552285 134,183 C134,182.487164 134.38604,182.064493 134.883379,182.006728 L135,182 L136,182 Z M226,182 C226.552285,182 227,182.447715 227,183 C227,183.512836 226.61396,183.935507 226.116621,183.993272 L226,184 L225,184 C224.447715,184 224,183.552285 224,183 C224,182.487164 224.38604,182.064493 224.883379,182.006728 L225,182 L226,182 Z M221,182 C221.552285,182 222,182.447715 222,183 C222,183.512836 221.61396,183.935507 221.116621,183.993272 L221,184 L220,184 C219.447715,184 219,183.552285 219,183 C219,182.487164 219.38604,182.064493 219.883379,182.006728 L220,182 L221,182 Z M216,182 C216.552285,182 217,182.447715 217,183 C217,183.512836 216.61396,183.935507 216.116621,183.993272 L216,184 L215,184 C214.447715,184 214,183.552285 214,183 C214,182.487164 214.38604,182.064493 214.883379,182.006728 L215,182 L216,182 Z M211,182 C211.552285,182 212,182.447715 212,183 C212,183.512836 211.61396,183.935507 211.116621,183.993272 L211,184 L210,184 C209.447715,184 209,183.552285 209,183 C209,182.487164 209.38604,182.064493 209.883379,182.006728 L210,182 L211,182 Z M206,182 C206.552285,182 207,182.447715 207,183 C207,183.512836 206.61396,183.935507 206.116621,183.993272 L206,184 L205,184 C204.447715,184 204,183.552285 204,183 C204,182.487164 204.38604,182.064493 204.883379,182.006728 L205,182 L206,182 Z M201,182 C201.552285,182 202,182.447715 202,183 C202,183.512836 201.61396,183.935507 201.116621,183.993272 L201,184 L200,184 C199.447715,184 199,183.552285 199,183 C199,182.487164 199.38604,182.064493 199.883379,182.006728 L200,182 L201,182 Z M196,182 C196.552285,182 197,182.447715 197,183 C197,183.512836 196.61396,183.935507 196.116621,183.993272 L196,184 L195,184 C194.447715,184 194,183.552285 194,183 C194,182.487164 194.38604,182.064493 194.883379,182.006728 L195,182 L196,182 Z M191,182 C191.552285,182 192,182.447715 192,183 C192,183.512836 191.61396,183.935507 191.116621,183.993272 L191,184 L190,184 C189.447715,184 189,183.552285 189,183 C189,182.487164 189.38604,182.064493 189.883379,182.006728 L190,182 L191,182 Z M186,182 C186.552285,182 187,182.447715 187,183 C187,183.512836 186.61396,183.935507 186.116621,183.993272 L186,184 L185,184 C184.447715,184 184,183.552285 184,183 C184,182.487164 184.38604,182.064493 184.883379,182.006728 L185,182 L186,182 Z M181,182 C181.552285,182 182,182.447715 182,183 C182,183.512836 181.61396,183.935507 181.116621,183.993272 L181,184 L180,184 C179.447715,184 179,183.552285 179,183 C179,182.487164 179.38604,182.064493 179.883379,182.006728 L180,182 L181,182 Z M176,182 C176.552285,182 177,182.447715 177,183 C177,183.512836 176.61396,183.935507 176.116621,183.993272 L176,184 L175,184 C174.447715,184 174,183.552285 174,183 C174,182.487164 174.38604,182.064493 174.883379,182.006728 L175,182 L176,182 Z M171,182 C171.552285,182 172,182.447715 172,183 C172,183.512836 171.61396,183.935507 171.116621,183.993272 L171,184 L170,184 C169.447715,184 169,183.552285 169,183 C169,182.487164 169.38604,182.064493 169.883379,182.006728 L170,182 L171,182 Z M146,182 C146.552285,182 147,182.447715 147,183 C147,183.512836 146.61396,183.935507 146.116621,183.993272 L146,184 L145,184 C144.447715,184 144,183.552285 144,183 C144,182.487164 144.38604,182.064493 144.883379,182.006728 L145,182 L146,182 Z M141,182 C141.552285,182 142,182.447715 142,183 C142,183.512836 141.61396,183.935507 141.116621,183.993272 L141,184 L140,184 C139.447715,184 139,183.552285 139,183 C139,182.487164 139.38604,182.064493 139.883379,182.006728 L140,182 L141,182 Z M156,182 C156.552285,182 157,182.447715 157,183 C157,183.512836 156.61396,183.935507 156.116621,183.993272 L156,184 L155,184 C154.447715,184 154,183.552285 154,183 C154,182.487164 154.38604,182.064493 154.883379,182.006728 L155,182 L156,182 Z M151,182 C151.552285,182 152,182.447715 152,183 C152,183.512836 151.61396,183.935507 151.116621,183.993272 L151,184 L150,184 C149.447715,184 149,183.552285 149,183 C149,182.487164 149.38604,182.064493 149.883379,182.006728 L150,182 L151,182 Z M229,180 C229.512836,180 229.935507,180.38604 229.993272,180.883379 L230,181 L230,182 C230,182.552285 229.552285,183 229,183 C228.487164,183 228.064493,182.61396 228.006728,182.116621 L228,182 L228,181 C228,180.447715 228.447715,180 229,180 Z M85,177 C85.5128358,177 85.9355072,177.38604 85.9932723,177.883379 L86,178 L86,179 C86,179.552285 85.5522847,180 85,180 C84.4871642,180 84.0644928,179.61396 84.0067277,179.116621 L84,179 L84,178 C84,177.447715 84.4477153,177 85,177 Z M229,175 C229.512836,175 229.935507,175.38604 229.993272,175.883379 L230,176 L230,177 C230,177.552285 229.552285,178 229,178 C228.487164,178 228.064493,177.61396 228.006728,177.116621 L228,177 L228,176 C228,175.447715 228.447715,175 229,175 Z M85,172 C85.5128358,172 85.9355072,172.38604 85.9932723,172.883379 L86,173 L86,174 C86,174.552285 85.5522847,175 85,175 C84.4871642,175 84.0644928,174.61396 84.0067277,174.116621 L84,174 L84,173 C84,172.447715 84.4477153,172 85,172 Z M229,170 C229.512836,170 229.935507,170.38604 229.993272,170.883379 L230,171 L230,172 C230,172.552285 229.552285,173 229,173 C228.487164,173 228.064493,172.61396 228.006728,172.116621 L228,172 L228,171 C228,170.447715 228.447715,170 229,170 Z M85,167 C85.5128358,167 85.9355072,167.38604 85.9932723,167.883379 L86,168 L86,169 C86,169.552285 85.5522847,170 85,170 C84.4871642,170 84.0644928,169.61396 84.0067277,169.116621 L84,169 L84,168 C84,167.447715 84.4477153,167 85,167 Z M229,165 C229.512836,165 229.935507,165.38604 229.993272,165.883379 L230,166 L230,167 C230,167.552285 229.552285,168 229,168 C228.487164,168 228.064493,167.61396 228.006728,167.116621 L228,167 L228,166 C228,165.447715 228.447715,165 229,165 Z M85,162 C85.5128358,162 85.9355072,162.38604 85.9932723,162.883379 L86,163 L86,164 C86,164.552285 85.5522847,165 85,165 C84.4871642,165 84.0644928,164.61396 84.0067277,164.116621 L84,164 L84,163 C84,162.447715 84.4477153,162 85,162 Z M229,160 C229.512836,160 229.935507,160.38604 229.993272,160.883379 L230,161 L230,162 C230,162.552285 229.552285,163 229,163 C228.487164,163 228.064493,162.61396 228.006728,162.116621 L228,162 L228,161 C228,160.447715 228.447715,160 229,160 Z M85,157 C85.5128358,157 85.9355072,157.38604 85.9932723,157.883379 L86,158 L86,159 C86,159.552285 85.5522847,160 85,160 C84.4871642,160 84.0644928,159.61396 84.0067277,159.116621 L84,159 L84,158 C84,157.447715 84.4477153,157 85,157 Z M229,155 C229.512836,155 229.935507,155.38604 229.993272,155.883379 L230,156 L230,157 C230,157.552285 229.552285,158 229,158 C228.487164,158 228.064493,157.61396 228.006728,157.116621 L228,157 L228,156 C228,155.447715 228.447715,155 229,155 Z M85,152 C85.5128358,152 85.9355072,152.38604 85.9932723,152.883379 L86,153 L86,154 C86,154.552285 85.5522847,155 85,155 C84.4871642,155 84.0644928,154.61396 84.0067277,154.116621 L84,154 L84,153 C84,152.447715 84.4477153,152 85,152 Z M229,150 C229.512836,150 229.935507,150.38604 229.993272,150.883379 L230,151 L230,152 C230,152.552285 229.552285,153 229,153 C228.487164,153 228.064493,152.61396 228.006728,152.116621 L228,152 L228,151 C228,150.447715 228.447715,150 229,150 Z M85,147 C85.5128358,147 85.9355072,147.38604 85.9932723,147.883379 L86,148 L86,149 C86,149.552285 85.5522847,150 85,150 C84.4871642,150 84.0644928,149.61396 84.0067277,149.116621 L84,149 L84,148 C84,147.447715 84.4477153,147 85,147 Z M229,145 C229.512836,145 229.935507,145.38604 229.993272,145.883379 L230,146 L230,147 C230,147.552285 229.552285,148 229,148 C228.487164,148 228.064493,147.61396 228.006728,147.116621 L228,147 L228,146 C228,145.447715 228.447715,145 229,145 Z M85,142 C85.5128358,142 85.9355072,142.38604 85.9932723,142.883379 L86,143 L86,144 C86,144.552285 85.5522847,145 85,145 C84.4871642,145 84.0644928,144.61396 84.0067277,144.116621 L84,144 L84,143 C84,142.447715 84.4477153,142 85,142 Z M229,140 C229.512836,140 229.935507,140.38604 229.993272,140.883379 L230,141 L230,142 C230,142.552285 229.552285,143 229,143 C228.487164,143 228.064493,142.61396 228.006728,142.116621 L228,142 L228,141 C228,140.447715 228.447715,140 229,140 Z M84.2529586,125.684046 C84.4592232,125.271517 84.9608544,125.104306 85.3733835,125.310571 C85.5350012,125.391379 85.6660496,125.522428 85.7468584,125.684046 L85.7468584,125.684046 L91.9116516,138.013632 C92.1179161,138.426161 91.9507057,138.927792 91.5381766,139.134057 C91.4222163,139.192037 91.2943493,139.222222 91.1647017,139.222222 L91.1647017,139.222222 L85.9751709,139.22244 C85.8740395,139.667662 85.4758307,140 85,140 C84.5241693,140 84.1259605,139.667662 84.0248291,139.22244 L78.8351154,139.222222 C78.3738939,139.222222 78,138.848328 78,138.387107 C78,138.257459 78.0301853,138.129592 78.0881655,138.013632 L78.0881655,138.013632 Z M229,135 C229.512836,135 229.935507,135.38604 229.993272,135.883379 L230,136 L230,137 C230,137.552285 229.552285,138 229,138 C228.487164,138 228.064493,137.61396 228.006728,137.116621 L228,137 L228,136 C228,135.447715 228.447715,135 229,135 Z M229,130 C229.512836,130 229.935507,130.38604 229.993272,130.883379 L230,131 L230,132 C230,132.552285 229.552285,133 229,133 C228.487164,133 228.064493,132.61396 228.006728,132.116621 L228,132 L228,131 C228,130.447715 228.447715,130 229,130 Z M229,125 C229.512836,125 229.935507,125.38604 229.993272,125.883379 L230,126 L230,127 C230,127.552285 229.552285,128 229,128 C228.487164,128 228.064493,127.61396 228.006728,127.116621 L228,127 L228,126 C228,125.447715 228.447715,125 229,125 Z" fill="#000000" fill-rule="nonzero"></path>
        <g id="Action/State-button" transform="translate(126.500000, 173.000000)">
            <rect id="Rectangle-368" stroke="#0B0C0C" stroke-width="2" fill="#FFFFFF" x="1" y="1" width="60" height="18" rx="9"></rect>
            <text id="Action-/-State-chang" font-family="ArialMT, Arial" font-size="8" font-weight="normal" fill="#0B0C0C">
                <tspan x="16.6007812" y="13">Change</tspan>
            </text>
        </g>
    </g>
</svg>